<svg width="224" height="40" viewBox="0 0 224 40" fill="none" xmlns="http://www.w3.org/2000/svg">
<path d="M9.30717 0.145299C12.9161 -0.462385 17.3353 0.877644 23.1549 3.38721C23.1677 3.39272 23.1871 3.39814 23.2056 3.40025C24.763 3.57778 25.9126 3.95752 26.8113 4.72846C27.6845 5.47755 28.2305 6.52215 28.7483 7.81307C29.5094 9.17577 30.1701 9.94276 31.5603 11.1555C31.5884 11.18 31.6449 11.2021 31.7194 11.1843C32.2082 11.0678 33.0183 10.9014 33.9044 10.8332C34.775 10.7662 35.7983 10.7869 36.6726 11.1026C37.3665 11.3532 38.0477 11.7287 38.5111 12.3245C39 12.953 39.1813 13.7427 39.0077 14.6559C38.8853 15.2993 38.681 15.9706 38.2796 16.5636C37.8683 17.1711 37.2775 17.6561 36.4535 17.961C36.0854 18.0971 35.6999 18.1553 35.3189 18.1629C36.2078 23.3857 36.3278 26.6582 34.7808 29.4202C33.9646 30.8774 32.7172 32.1366 31.0139 33.4598C29.3139 34.7805 27.1066 36.2045 24.333 37.9682C18.399 41.7414 11.2509 39.7324 6.37586 36.2275C3.92588 34.4661 1.95914 32.269 0.946434 30.0951C0.00218809 28.0682 -0.165788 25.9005 1.1364 24.2262C0.601282 22.323 0.151455 19.9821 0.0314251 17.5793C-0.0860165 15.2282 0.110016 12.7721 0.886679 10.5995C0.763226 10.48 0.654659 10.3389 0.567199 10.1702C0.365742 9.78175 0.329131 9.34413 0.334673 8.92479C0.33811 8.6647 0.408015 8.42006 0.512094 8.21357C2.93426 3.40818 5.59183 0.7709 9.30717 0.145299ZM22.5557 4.80787C16.7103 2.28717 12.6756 1.14389 9.55812 1.66879C6.54705 2.1758 4.20565 4.287 1.87294 8.91494C1.86834 8.92407 1.86518 8.93289 1.86337 8.93987C1.86158 8.94682 1.86192 8.94886 1.86197 8.94546C1.85741 9.29068 1.89877 9.41198 1.91997 9.45288C1.92403 9.46072 1.94128 9.51045 2.12389 9.5896C2.16913 9.60921 2.22275 9.62969 2.28648 9.65118C2.28904 9.65113 2.29414 9.65074 2.30236 9.64887C2.32527 9.64365 2.3618 9.62897 2.40274 9.59812C4.44661 8.05821 6.77252 8.09479 8.60722 8.51C10.4126 8.91858 11.9415 9.75496 12.2647 9.88834C12.4598 9.96884 12.6661 10.105 12.8347 10.2206C12.9963 10.3314 13.2481 10.5123 13.4434 10.6477C13.8874 10.9556 14.3921 11.2794 14.9393 11.5126C15.485 11.7451 16.0401 11.8731 16.5904 11.8229C17.1273 11.7739 17.7166 11.5506 18.3384 10.9837C18.6516 10.6981 19.1346 10.7234 19.417 11.0402C19.6995 11.3569 19.6745 11.8453 19.3612 12.1309C18.5113 12.9058 17.6165 13.28 16.7277 13.3611C15.8522 13.441 15.0397 13.2315 14.3461 12.9359C13.6541 12.641 13.0477 12.2462 12.5795 11.9215C12.3186 11.7406 12.1639 11.6268 11.9775 11.499C11.8957 11.4428 11.8294 11.3994 11.7754 11.3668C11.7489 11.3507 11.7281 11.3388 11.7121 11.3304C11.7042 11.3262 11.6982 11.3233 11.6938 11.3212C11.6899 11.3193 11.6876 11.3183 11.6876 11.3183C11.1507 11.0968 9.9148 10.3887 8.27361 10.0173C6.66172 9.65247 4.85913 9.67352 3.31538 10.8366C3.04932 11.0371 2.69055 11.1929 2.29771 11.1961C1.63505 13.0913 1.44677 15.2951 1.55697 17.5013C1.67856 19.9354 2.16078 22.3183 2.71749 24.1908C3.23993 25.9481 4.51986 26.8788 4.86435 27.1014C5.96135 27.3908 14.9154 29.7434 18.9901 30.5135C20.2637 30.7543 21.3013 30.2204 22.526 29.4779C23.668 28.7855 25.0756 27.8214 26.7727 27.9589C27.1932 27.993 27.5067 28.3652 27.473 28.7903C27.4393 29.2155 27.0712 29.5326 26.6507 29.4985C25.5471 29.4092 24.608 30.0165 23.3114 30.8025C22.0976 31.5384 20.6046 32.3899 18.7094 32.0317C14.5688 31.2491 5.55175 28.8791 4.47845 28.5959C4.34592 28.561 4.20234 28.5057 4.06008 28.4148C3.71187 28.1922 2.65464 27.4438 1.87101 26.0753C1.57756 27.0062 1.72656 28.1454 2.32825 29.437C3.19975 31.3077 4.96051 33.3149 7.26094 34.9688C11.8868 38.2945 18.3315 39.9598 23.5198 36.6607C26.3073 34.8882 28.4507 33.5034 30.0833 32.2351C31.7126 30.9693 32.7796 29.8591 33.4517 28.659C34.7471 26.3463 34.6992 23.4903 33.7315 17.9505C33.0862 17.7809 32.4874 17.5374 32.0288 17.325C31.7347 17.1888 31.4903 17.0617 31.3182 16.9679C31.232 16.921 31.1636 16.8822 31.1157 16.8546C31.0917 16.8407 31.0729 16.8296 31.0595 16.8216C31.0528 16.8177 31.0475 16.8145 31.0435 16.8121C31.0416 16.811 31.0387 16.8092 31.0387 16.8092L31.0371 16.8082C31.0371 16.8082 31.0479 16.7876 31.4289 16.1454L31.0371 16.8082C30.6754 16.5888 30.5571 16.1138 30.7741 15.7481C30.991 15.3825 31.4599 15.2639 31.8216 15.4831L31.8228 15.4838C31.8228 15.4838 31.8275 15.4866 31.8319 15.4892C31.8406 15.4943 31.8546 15.5026 31.8734 15.5135C31.9112 15.5353 31.9686 15.5679 32.0427 15.6082C32.1912 15.6892 32.4058 15.8008 32.6647 15.9207C33.1897 16.1638 33.8661 16.4263 34.5313 16.5493C35.0906 16.6526 35.5692 16.6434 35.9287 16.5104C36.4626 16.3129 36.7927 16.0256 37.0191 15.6912C37.2553 15.3423 37.4054 14.9019 37.5077 14.3642C37.6071 13.8416 37.4964 13.5182 37.3105 13.2792C37.0991 13.0074 36.7228 12.7608 36.1588 12.5571C35.5846 12.3497 34.8145 12.3121 34.0203 12.3732C33.2416 12.4332 32.5154 12.5814 32.0698 12.6876C31.558 12.8096 30.9906 12.6983 30.5625 12.3249C29.0568 11.0114 28.27 10.1069 27.3935 8.52828L27.3696 8.48507L27.3511 8.43902C26.845 7.16965 26.409 6.40885 25.8231 5.90628C25.2519 5.41621 24.4466 5.09597 23.0345 4.93501C22.8733 4.91664 22.7093 4.8741 22.5557 4.80787Z" fill="#626A51"/>
<path d="M26.4311 12.8985C26.4311 14.0992 25.5307 15.0725 24.42 15.0725C23.3093 15.0725 22.409 14.0992 22.409 12.8985C22.409 11.6979 23.3093 10.7246 24.42 10.7246C25.5307 10.7246 26.4311 11.6979 26.4311 12.8985Z" fill="#626A51"/>
<path d="M65.8941 27.4397C65.4938 27.7595 64.885 28.054 64.0676 28.3232C63.267 28.5757 62.4246 28.7355 61.5406 28.8029C58.6382 28.988 56.3363 28.1381 54.6349 26.2533C52.9502 24.3516 52.1078 21.9282 52.1078 18.9831C52.1078 16.2737 52.775 14.0522 54.1095 12.3188C55.4606 10.5686 57.4705 9.69351 60.1394 9.69351C61.8575 9.69351 63.292 10.1563 64.4429 11.0819C65.6106 12.0075 66.1944 13.1014 66.1944 14.3636H62.8166C62.7832 13.5726 62.508 12.9752 61.9909 12.5713C61.4738 12.1505 60.815 11.9402 60.0143 11.9402C58.83 11.9402 57.7625 12.546 56.8117 13.7577C55.8776 14.9526 55.4105 16.5513 55.4105 18.554C55.4105 21.5664 56.0944 23.6784 57.4622 24.8901C58.8467 26.085 60.2895 26.6235 61.7908 26.5057C62.3245 26.4552 62.7916 26.3627 63.1919 26.228C63.6089 26.0934 63.9842 25.9503 64.3178 25.7989C64.7515 25.5128 65.1602 25.4118 65.5438 25.496C65.9275 25.5801 66.186 25.7736 66.3195 26.0766C66.4196 26.3122 66.4196 26.5646 66.3195 26.8339C66.2361 27.0863 66.0943 27.2883 65.8941 27.4397Z" fill="#626A51"/>
<path d="M73.6165 28.6262H70.5139V12.546C70.5139 12.0412 70.4722 11.7046 70.3888 11.5363C70.3054 11.3512 70.2053 11.2334 70.0886 11.1829C69.8217 11.0819 69.6132 10.9809 69.4631 10.88C69.3129 10.779 69.2379 10.5855 69.2379 10.2994C69.2379 9.72717 69.5882 9.44108 70.2887 9.44108H72.5406C73.2578 9.44108 73.6165 9.71876 73.6165 10.2741V16.7869C73.8 16.585 74.0168 16.3915 74.267 16.2063C75.101 15.5332 76.0351 15.1966 77.0693 15.1966C78.2703 15.1966 79.2378 15.6089 79.9717 16.4335C80.7223 17.2582 81.0976 18.6466 81.0976 20.5987V28.6262H77.9951V20.5482C77.9951 19.3702 77.8449 18.5877 77.5447 18.2006C77.2445 17.7967 76.8942 17.5947 76.4938 17.5947C75.7933 17.5947 75.051 18.0828 74.267 19.0589C74.0168 19.3786 73.8 19.7657 73.6165 20.2201V28.6262Z" fill="#626A51"/>
<path d="M96.6764 28.6262H93.5739V27.3387L93.3237 27.5912C92.5063 28.399 91.4555 28.8029 90.1711 28.8029C89.0201 28.8029 88.061 28.399 87.2937 27.5912C86.5264 26.7666 86.1428 25.4455 86.1428 23.6279V18.4783C86.1428 17.9566 86.1011 17.6116 86.0177 17.4433C85.9509 17.275 85.8759 17.174 85.7925 17.1404C85.5256 17.0394 85.3004 16.9384 85.1169 16.8374C84.9501 16.7196 84.8667 16.5093 84.8667 16.2063C84.8667 15.6678 85.217 15.3986 85.9176 15.3986H88.1694C88.8867 15.3986 89.2453 15.6762 89.2453 16.2316V23.4765C89.2453 24.6545 89.3954 25.4455 89.6957 25.8494C89.9959 26.2364 90.3629 26.43 90.7966 26.43C91.5973 26.43 92.3312 26.0261 92.9984 25.2183C93.2152 24.949 93.4071 24.5956 93.5739 24.1581V18.5035C93.5739 17.965 93.5405 17.6116 93.4738 17.4433C93.4071 17.275 93.282 17.1488 93.0985 17.0646C92.8483 16.9973 92.6481 16.9047 92.498 16.7869C92.3479 16.6691 92.2728 16.4924 92.2728 16.2568C92.2728 15.6846 92.6314 15.3986 93.3487 15.3986H95.6005C96.3178 15.3986 96.6764 15.7015 96.6764 16.3073V28.6262Z" fill="#626A51"/>
<path d="M109.878 22.0881C109.878 20.5398 109.611 19.3534 109.078 18.5287C108.561 17.6873 107.935 17.2666 107.201 17.2666C106.584 17.2666 106.042 17.5779 105.575 18.2006C105.108 18.8064 104.874 19.6395 104.874 20.6997V23.0978C104.874 24.461 105.116 25.4118 105.6 25.9503C106.083 26.472 106.626 26.7329 107.226 26.7329C107.877 26.7329 108.477 26.3374 109.028 25.5464C109.595 24.7555 109.878 23.6027 109.878 22.0881ZM104.849 15.9792C105.566 15.3733 106.484 15.0704 107.601 15.0704C109.37 15.0704 110.712 15.7099 111.63 16.9889C112.547 18.2511 113.006 19.9256 113.006 22.0124C113.006 23.9477 112.522 25.5633 111.555 26.8591C110.587 28.1549 109.194 28.8029 107.376 28.8029C106.125 28.8029 105.149 28.4579 104.449 27.7679C104.048 28.3401 103.356 28.6262 102.372 28.6262H101.772V12.546C101.772 12.0412 101.73 11.6962 101.646 11.511C101.563 11.3259 101.455 11.2081 101.321 11.1576C101.038 11.0567 100.829 10.9641 100.696 10.88C100.562 10.779 100.496 10.5855 100.496 10.2994C100.496 9.72717 100.846 9.44108 101.546 9.44108H103.773C104.491 9.44108 104.849 9.71876 104.849 10.2741V15.9792Z" fill="#626A51"/>
<path d="M125.507 22.0881C125.507 20.5398 125.24 19.3534 124.706 18.5287C124.189 17.6873 123.564 17.2666 122.83 17.2666C122.213 17.2666 121.671 17.5779 121.204 18.2006C120.737 18.8064 120.503 19.6395 120.503 20.6997V23.0978C120.503 24.461 120.745 25.4118 121.229 25.9503C121.712 26.472 122.254 26.7329 122.855 26.7329C123.505 26.7329 124.106 26.3374 124.656 25.5464C125.224 24.7555 125.507 23.6027 125.507 22.0881ZM120.478 15.9792C121.195 15.3733 122.113 15.0704 123.23 15.0704C124.998 15.0704 126.341 15.7099 127.259 16.9889C128.176 18.2511 128.635 19.9256 128.635 22.0124C128.635 23.9477 128.151 25.5633 127.183 26.8591C126.216 28.1549 124.823 28.8029 123.005 28.8029C121.754 28.8029 120.778 28.4579 120.078 27.7679C119.677 28.3401 118.985 28.6262 118.001 28.6262H117.4V12.546C117.4 12.0412 117.359 11.6962 117.275 11.511C117.192 11.3259 117.084 11.2081 116.95 11.1576C116.667 11.0567 116.458 10.9641 116.325 10.88C116.191 10.779 116.124 10.5855 116.124 10.2994C116.124 9.72717 116.475 9.44108 117.175 9.44108H119.402C120.119 9.44108 120.478 9.71876 120.478 10.2741V15.9792Z" fill="#626A51"/>
<path d="M133.805 32.8418C132.887 32.6904 132.187 32.2865 131.703 31.6301C131.219 30.9906 130.978 30.0482 130.978 28.8029H133.955C133.955 29.3582 133.972 29.7453 134.005 29.9641C134.055 30.1997 134.113 30.368 134.18 30.4689C134.297 30.6372 134.43 30.7298 134.581 30.7466C134.747 30.7634 134.856 30.7719 134.906 30.7719C135.089 30.755 135.264 30.6036 135.431 30.3175C135.598 30.0314 135.782 29.577 135.982 28.9543L136.432 27.5407L133.104 18.8822C132.938 18.3436 132.771 17.8977 132.604 17.5443C132.454 17.174 132.32 16.9721 132.204 16.9384C131.97 16.8711 131.787 16.7785 131.653 16.6607C131.503 16.5261 131.428 16.3494 131.428 16.1306C131.428 15.6426 131.787 15.3986 132.504 15.3986H135.156L137.933 23.0978L140.485 15.3986H142.287C142.671 15.3986 142.929 15.5248 143.063 15.7772C143.213 16.0296 143.254 16.2989 143.188 16.585L138.684 29.5602C138.15 31.1253 137.458 32.1098 136.607 32.5137C135.773 32.9344 134.839 33.0438 133.805 32.8418Z" fill="#626A51"/>
<path d="M160.359 28.6262H157.256V12.546C157.256 12.0412 157.214 11.7046 157.131 11.5363C157.048 11.3512 156.948 11.2334 156.831 11.1829C156.564 11.0819 156.355 10.9809 156.205 10.88C156.055 10.779 155.98 10.5855 155.98 10.2994C155.98 9.72717 156.33 9.44108 157.031 9.44108H159.283C160 9.44108 160.359 9.71876 160.359 10.2741V16.7869C160.542 16.585 160.759 16.3915 161.009 16.2063C161.843 15.5332 162.777 15.1966 163.812 15.1966C165.013 15.1966 165.98 15.6089 166.714 16.4335C167.465 17.2582 167.84 18.6466 167.84 20.5987V28.6262H164.737V20.5482C164.737 19.3702 164.587 18.5877 164.287 18.2006C163.987 17.7967 163.636 17.5947 163.236 17.5947C162.536 17.5947 161.793 18.0828 161.009 19.0589C160.759 19.3786 160.542 19.7657 160.359 20.2201V28.6262Z" fill="#626A51"/>
<path d="M176.213 28.6262H173.085V18.5035C173.085 17.9818 173.043 17.6284 172.96 17.4433C172.877 17.2582 172.785 17.1404 172.685 17.0899C172.385 17.0057 172.159 16.9047 172.009 16.7869C171.859 16.6691 171.784 16.4924 171.784 16.2568C171.784 15.6846 172.143 15.3986 172.86 15.3986H175.137C175.854 15.3986 176.213 15.7015 176.213 16.3073V28.6262ZM176.313 11.4858C176.313 12.0243 176.121 12.4871 175.737 12.8742C175.37 13.2444 174.92 13.4296 174.386 13.4296C173.852 13.4296 173.402 13.2444 173.035 12.8742C172.668 12.4871 172.485 12.0243 172.485 11.4858C172.485 10.9473 172.668 10.4845 173.035 10.0974C173.402 9.69351 173.852 9.49157 174.386 9.49157C174.92 9.49157 175.37 9.69351 175.737 10.0974C176.121 10.4845 176.313 10.9473 176.313 11.4858Z" fill="#626A51"/>
<path d="M181.458 18.5035C181.458 17.9818 181.416 17.6368 181.333 17.4685C181.25 17.2834 181.149 17.1572 181.033 17.0899C180.766 17.0057 180.557 16.9047 180.407 16.7869C180.257 16.6691 180.182 16.484 180.182 16.2316C180.182 15.6762 180.532 15.3986 181.233 15.3986H183.46C184.094 15.3986 184.444 15.6089 184.511 16.0296C185.228 15.3901 186.154 15.0704 187.288 15.0704C189.056 15.0704 190.399 15.7099 191.316 16.9889C192.234 18.2511 192.692 19.9256 192.692 22.0124C192.692 23.9477 192.209 25.5633 191.241 26.8591C190.274 28.1549 188.881 28.8029 187.063 28.8029C186.028 28.8029 185.186 28.5588 184.536 28.0708V32.9428H181.458V18.5035ZM189.565 22.0881C189.565 20.5398 189.298 19.3534 188.764 18.5287C188.247 17.6873 187.621 17.2666 186.888 17.2666C186.27 17.2666 185.728 17.5779 185.261 18.2006C184.794 18.8064 184.561 19.6395 184.561 20.6997V23.0978C184.561 24.4105 184.786 25.3445 185.236 25.8999C185.703 26.4552 186.262 26.7329 186.913 26.7329C187.546 26.7329 188.147 26.3374 188.714 25.5464C189.281 24.7555 189.565 23.6027 189.565 22.0881Z" fill="#626A51"/>
<path d="M197.087 18.5035C197.087 17.9818 197.045 17.6368 196.962 17.4685C196.878 17.2834 196.778 17.1572 196.662 17.0899C196.395 17.0057 196.186 16.9047 196.036 16.7869C195.886 16.6691 195.811 16.484 195.811 16.2316C195.811 15.6762 196.161 15.3986 196.862 15.3986H199.089C199.722 15.3986 200.073 15.6089 200.139 16.0296C200.857 15.3901 201.782 15.0704 202.917 15.0704C204.685 15.0704 206.028 15.7099 206.945 16.9889C207.862 18.2511 208.321 19.9256 208.321 22.0124C208.321 23.9477 207.837 25.5633 206.87 26.8591C205.902 28.1549 204.51 28.8029 202.692 28.8029C201.657 28.8029 200.815 28.5588 200.164 28.0708V32.9428H197.087V18.5035ZM205.194 22.0881C205.194 20.5398 204.927 19.3534 204.393 18.5287C203.876 17.6873 203.25 17.2666 202.516 17.2666C201.899 17.2666 201.357 17.5779 200.89 18.2006C200.423 18.8064 200.189 19.6395 200.189 20.6997V23.0978C200.189 24.4105 200.415 25.3445 200.865 25.8999C201.332 26.4552 201.891 26.7329 202.541 26.7329C203.175 26.7329 203.776 26.3374 204.343 25.5464C204.91 24.7555 205.194 23.6027 205.194 22.0881Z" fill="#626A51"/>
<path d="M211.74 21.9619C211.74 19.9424 212.257 18.2931 213.291 17.0141C214.342 15.7183 215.86 15.0704 217.845 15.0704C219.847 15.0704 221.373 15.7183 222.424 17.0141C223.475 18.2931 224 19.9424 224 21.9619C224 23.9645 223.475 25.6054 222.424 26.8844C221.373 28.1634 219.847 28.8029 217.845 28.8029C215.86 28.8029 214.342 28.1634 213.291 26.8844C212.257 25.6054 211.74 23.9645 211.74 21.9619ZM215.018 21.9619C215.018 23.6111 215.31 24.8228 215.893 25.5969C216.477 26.3542 217.128 26.7329 217.845 26.7329C218.579 26.7329 219.238 26.3542 219.822 25.5969C220.422 24.8228 220.722 23.6111 220.722 21.9619C220.722 20.2958 220.422 19.0757 219.822 18.3016C219.238 17.5274 218.579 17.1404 217.845 17.1404C217.128 17.1404 216.477 17.5274 215.893 18.3016C215.31 19.0757 215.018 20.2958 215.018 21.9619Z" fill="#626A51"/>
</svg>
