<svg width="481" height="487" viewBox="0 0 481 487" fill="none" xmlns="http://www.w3.org/2000/svg">
<path d="M124 27.4855L22 118.985L48 184.485V327.985L80 415.985L233.5 469.485L404.5 360.985L411 231.485L437 218.485L450.5 169.985L389 159.485L311 77.9855L124 27.4855Z" fill="#F5F0E8"/>
<mask id="path-2-outside-1_291_137" maskUnits="userSpaceOnUse" x="0" y="-0.0102539" width="481" height="487" fill="black">
<rect fill="white" y="-0.0102539" width="481" height="487"/>
<path d="M126.584 24.589C166.75 17.9004 215.934 32.6497 280.702 60.2716C280.845 60.3323 281.061 60.3919 281.267 60.4152C298.6 62.3692 311.395 66.5488 321.397 75.0343C331.115 83.2793 337.191 94.7768 342.954 108.985C351.425 123.984 358.778 132.426 374.25 145.775C374.563 146.044 375.191 146.287 376.021 146.092C381.461 144.809 390.477 142.977 400.339 142.227C410.028 141.489 421.417 141.717 431.148 145.193C438.87 147.951 446.452 152.083 451.609 158.641C457.05 165.559 459.069 174.251 457.136 184.302C455.774 191.384 453.5 198.772 449.032 205.3C444.455 211.987 437.88 217.325 428.709 220.68C424.612 222.179 420.322 222.819 416.082 222.902C425.975 280.388 427.31 316.407 410.093 346.808C401.009 362.847 387.126 376.706 368.169 391.271C349.249 405.807 324.683 421.48 293.814 440.893C227.772 482.423 148.216 460.31 93.9601 421.734C66.6931 402.346 44.8042 378.163 33.5333 354.236C23.0244 331.927 21.1549 308.068 35.6476 289.64C29.692 268.691 24.6856 242.926 23.3497 216.479C22.0427 190.601 24.2244 163.568 32.8683 139.654C31.4943 138.34 30.286 136.786 29.3126 134.93C27.0705 130.654 26.6631 125.837 26.7247 121.222C26.763 118.359 27.541 115.666 28.6994 113.394C55.6568 60.5024 85.2343 31.4748 126.584 24.589ZM274.033 75.9083C208.978 48.1639 164.073 35.5801 129.377 41.3576C95.8654 46.938 69.8068 70.1753 43.8449 121.113C43.7936 121.214 43.7585 121.311 43.7384 121.388C43.7184 121.464 43.7223 121.487 43.7228 121.449C43.672 125.249 44.1323 126.584 44.3683 127.034C44.4135 127.121 44.6055 127.668 46.6378 128.539C47.1413 128.755 47.7381 128.98 48.4474 129.217C48.4759 129.216 48.5327 129.212 48.6242 129.192C48.8791 129.134 49.2857 128.972 49.7413 128.633C72.4886 111.684 98.3748 112.086 118.794 116.656C138.887 121.153 155.903 130.359 159.5 131.827C161.671 132.713 163.967 134.212 165.844 135.485C167.643 136.704 170.445 138.695 172.618 140.186C177.56 143.575 183.176 147.139 189.267 149.705C195.34 152.264 201.519 153.673 207.643 153.12C213.619 152.581 220.177 150.124 227.097 143.884C230.583 140.741 235.958 141.019 239.102 144.505C242.245 147.991 241.967 153.366 238.481 156.51C229.021 165.039 219.063 169.158 209.171 170.051C199.427 170.93 190.385 168.624 182.665 165.371C174.963 162.125 168.214 157.779 163.003 154.205C160.1 152.214 158.378 150.962 156.304 149.555C155.393 148.937 154.655 148.459 154.055 148.1C153.76 147.923 153.528 147.792 153.35 147.699C153.262 147.654 153.195 147.621 153.147 147.599C153.102 147.578 153.08 147.568 153.077 147.567C147.102 145.128 133.347 137.334 115.081 133.246C97.1416 129.231 77.0797 129.463 59.8986 142.265C56.9374 144.471 52.9445 146.186 48.5724 146.222C41.1973 167.081 39.1018 191.338 40.3283 215.62C41.6815 242.412 47.0484 268.64 53.2443 289.25C59.0588 308.592 73.3038 318.835 77.1378 321.285C89.3468 324.471 189.001 350.365 234.351 358.842C248.525 361.491 260.073 355.615 273.703 347.443C286.413 339.822 302.078 329.211 320.967 330.724C325.646 331.099 329.135 335.196 328.761 339.875C328.386 344.555 324.289 348.045 319.609 347.67C307.326 346.686 296.875 353.371 282.444 362.023C268.935 370.122 252.319 379.495 231.227 375.552C185.143 366.937 84.7882 340.852 72.8429 337.736C71.3679 337.351 69.7699 336.742 68.1867 335.741C64.3113 333.292 52.5448 325.054 43.8234 309.991C40.5575 320.238 42.2158 332.777 48.9122 346.992C58.6116 367.583 78.208 389.675 103.811 407.879C155.294 444.484 227.02 462.813 284.764 426.501C315.787 406.992 339.642 391.75 357.812 377.79C375.945 363.858 387.82 351.638 395.301 338.43C409.717 312.975 409.185 281.54 398.415 220.565C391.233 218.698 384.568 216.018 379.464 213.68C376.191 212.181 373.471 210.782 371.556 209.75C370.597 209.233 369.835 208.807 369.302 208.502C369.035 208.35 368.826 208.227 368.677 208.14C368.602 208.096 368.543 208.061 368.499 208.035C368.477 208.022 368.459 208.011 368.445 208.003C368.438 207.999 368.432 207.995 368.427 207.992C368.424 207.991 368.422 207.99 368.42 207.988C368.419 207.988 368.418 207.987 368.417 207.986C368.42 207.979 368.547 207.765 372.788 200.696L368.415 207.985C364.39 205.57 363.085 200.349 365.5 196.323C367.915 192.299 373.133 190.994 377.158 193.406C377.161 193.408 377.166 193.411 377.172 193.414C377.191 193.425 377.224 193.445 377.273 193.474C377.37 193.531 377.525 193.621 377.735 193.741C378.156 193.982 378.794 194.34 379.619 194.784C381.272 195.675 383.66 196.904 386.542 198.224C392.384 200.899 399.913 203.789 407.317 205.142C413.541 206.279 418.867 206.178 422.868 204.714C428.811 202.54 432.485 199.378 435.004 195.697C437.632 191.857 439.304 187.009 440.442 181.092C441.548 175.339 440.316 171.78 438.247 169.15C435.895 166.158 431.707 163.443 425.43 161.201C419.039 158.919 410.469 158.505 401.629 159.178C392.963 159.838 384.881 161.469 379.921 162.638C374.225 163.981 367.909 162.755 363.146 158.646C346.388 144.188 337.631 134.233 327.876 116.858L327.609 116.382L327.404 115.875C321.772 101.904 316.918 93.5298 310.399 87.9982C304.041 82.6041 295.078 79.0794 279.362 77.3078C277.568 77.1055 275.743 76.6373 274.033 75.9083ZM377.158 193.406C377.157 193.406 377.156 193.405 377.155 193.404L377.158 193.406Z"/>
</mask>
<path d="M126.584 24.589C166.75 17.9004 215.934 32.6497 280.702 60.2716C280.845 60.3323 281.061 60.3919 281.267 60.4152C298.6 62.3692 311.395 66.5488 321.397 75.0343C331.115 83.2793 337.191 94.7768 342.954 108.985C351.425 123.984 358.778 132.426 374.25 145.775C374.563 146.044 375.191 146.287 376.021 146.092C381.461 144.809 390.477 142.977 400.339 142.227C410.028 141.489 421.417 141.717 431.148 145.193C438.87 147.951 446.452 152.083 451.609 158.641C457.05 165.559 459.069 174.251 457.136 184.302C455.774 191.384 453.5 198.772 449.032 205.3C444.455 211.987 437.88 217.325 428.709 220.68C424.612 222.179 420.322 222.819 416.082 222.902C425.975 280.388 427.31 316.407 410.093 346.808C401.009 362.847 387.126 376.706 368.169 391.271C349.249 405.807 324.683 421.48 293.814 440.893C227.772 482.423 148.216 460.31 93.9601 421.734C66.6931 402.346 44.8042 378.163 33.5333 354.236C23.0244 331.927 21.1549 308.068 35.6476 289.64C29.692 268.691 24.6856 242.926 23.3497 216.479C22.0427 190.601 24.2244 163.568 32.8683 139.654C31.4943 138.34 30.286 136.786 29.3126 134.93C27.0705 130.654 26.6631 125.837 26.7247 121.222C26.763 118.359 27.541 115.666 28.6994 113.394C55.6568 60.5024 85.2343 31.4748 126.584 24.589ZM274.033 75.9083C208.978 48.1639 164.073 35.5801 129.377 41.3576C95.8654 46.938 69.8068 70.1753 43.8449 121.113C43.7936 121.214 43.7585 121.311 43.7384 121.388C43.7184 121.464 43.7223 121.487 43.7228 121.449C43.672 125.249 44.1323 126.584 44.3683 127.034C44.4135 127.121 44.6055 127.668 46.6378 128.539C47.1413 128.755 47.7381 128.98 48.4474 129.217C48.4759 129.216 48.5327 129.212 48.6242 129.192C48.8791 129.134 49.2857 128.972 49.7413 128.633C72.4886 111.684 98.3748 112.086 118.794 116.656C138.887 121.153 155.903 130.359 159.5 131.827C161.671 132.713 163.967 134.212 165.844 135.485C167.643 136.704 170.445 138.695 172.618 140.186C177.56 143.575 183.176 147.139 189.267 149.705C195.34 152.264 201.519 153.673 207.643 153.12C213.619 152.581 220.177 150.124 227.097 143.884C230.583 140.741 235.958 141.019 239.102 144.505C242.245 147.991 241.967 153.366 238.481 156.51C229.021 165.039 219.063 169.158 209.171 170.051C199.427 170.93 190.385 168.624 182.665 165.371C174.963 162.125 168.214 157.779 163.003 154.205C160.1 152.214 158.378 150.962 156.304 149.555C155.393 148.937 154.655 148.459 154.055 148.1C153.76 147.923 153.528 147.792 153.35 147.699C153.262 147.654 153.195 147.621 153.147 147.599C153.102 147.578 153.08 147.568 153.077 147.567C147.102 145.128 133.347 137.334 115.081 133.246C97.1416 129.231 77.0797 129.463 59.8986 142.265C56.9374 144.471 52.9445 146.186 48.5724 146.222C41.1973 167.081 39.1018 191.338 40.3283 215.62C41.6815 242.412 47.0484 268.64 53.2443 289.25C59.0588 308.592 73.3038 318.835 77.1378 321.285C89.3468 324.471 189.001 350.365 234.351 358.842C248.525 361.491 260.073 355.615 273.703 347.443C286.413 339.822 302.078 329.211 320.967 330.724C325.646 331.099 329.135 335.196 328.761 339.875C328.386 344.555 324.289 348.045 319.609 347.67C307.326 346.686 296.875 353.371 282.444 362.023C268.935 370.122 252.319 379.495 231.227 375.552C185.143 366.937 84.7882 340.852 72.8429 337.736C71.3679 337.351 69.7699 336.742 68.1867 335.741C64.3113 333.292 52.5448 325.054 43.8234 309.991C40.5575 320.238 42.2158 332.777 48.9122 346.992C58.6116 367.583 78.208 389.675 103.811 407.879C155.294 444.484 227.02 462.813 284.764 426.501C315.787 406.992 339.642 391.75 357.812 377.79C375.945 363.858 387.82 351.638 395.301 338.43C409.717 312.975 409.185 281.54 398.415 220.565C391.233 218.698 384.568 216.018 379.464 213.68C376.191 212.181 373.471 210.782 371.556 209.75C370.597 209.233 369.835 208.807 369.302 208.502C369.035 208.35 368.826 208.227 368.677 208.14C368.602 208.096 368.543 208.061 368.499 208.035C368.477 208.022 368.459 208.011 368.445 208.003C368.438 207.999 368.432 207.995 368.427 207.992C368.424 207.991 368.422 207.99 368.42 207.988C368.419 207.988 368.418 207.987 368.417 207.986C368.42 207.979 368.547 207.765 372.788 200.696L368.415 207.985C364.39 205.57 363.085 200.349 365.5 196.323C367.915 192.299 373.133 190.994 377.158 193.406C377.161 193.408 377.166 193.411 377.172 193.414C377.191 193.425 377.224 193.445 377.273 193.474C377.37 193.531 377.525 193.621 377.735 193.741C378.156 193.982 378.794 194.34 379.619 194.784C381.272 195.675 383.66 196.904 386.542 198.224C392.384 200.899 399.913 203.789 407.317 205.142C413.541 206.279 418.867 206.178 422.868 204.714C428.811 202.54 432.485 199.378 435.004 195.697C437.632 191.857 439.304 187.009 440.442 181.092C441.548 175.339 440.316 171.78 438.247 169.15C435.895 166.158 431.707 163.443 425.43 161.201C419.039 158.919 410.469 158.505 401.629 159.178C392.963 159.838 384.881 161.469 379.921 162.638C374.225 163.981 367.909 162.755 363.146 158.646C346.388 144.188 337.631 134.233 327.876 116.858L327.609 116.382L327.404 115.875C321.772 101.904 316.918 93.5298 310.399 87.9982C304.041 82.6041 295.078 79.0794 279.362 77.3078C277.568 77.1055 275.743 76.6373 274.033 75.9083ZM377.158 193.406C377.157 193.406 377.156 193.405 377.155 193.404L377.158 193.406Z" fill="#737B5F"/>
<path d="M126.584 24.589L122.806 1.90142L122.806 1.90142L126.584 24.589ZM280.702 60.2716L271.68 81.428L271.687 81.4312L280.702 60.2716ZM281.267 60.4152L278.69 83.2704L278.69 83.2704L281.267 60.4152ZM321.397 75.0343L336.276 57.4959L336.276 57.4958L321.397 75.0343ZM342.954 108.985L321.641 117.63L322.198 119.005L322.928 120.296L342.954 108.985ZM374.25 145.775L359.226 163.189L359.232 163.195L374.25 145.775ZM376.021 146.092L370.743 123.706L370.743 123.706L376.021 146.092ZM400.339 142.227L402.085 165.16V165.16L400.339 142.227ZM431.148 145.193L438.883 123.533L438.883 123.532L431.148 145.193ZM451.609 158.641L469.688 144.423L469.688 144.423L451.609 158.641ZM457.136 184.302L479.722 188.645L479.722 188.645L457.136 184.302ZM449.032 205.3L468.012 218.292L468.012 218.291L449.032 205.3ZM428.709 220.68L436.611 242.28L436.612 242.28L428.709 220.68ZM416.082 222.902L415.631 199.907L388.877 200.432L393.415 226.803L416.082 222.902ZM410.093 346.808L430.106 358.142L430.106 358.142L410.093 346.808ZM368.169 391.271L354.156 373.032H354.156L368.169 391.271ZM293.814 440.893L306.057 460.363V460.363L293.814 440.893ZM93.9601 421.734L80.6323 440.478L80.6324 440.478L93.9601 421.734ZM33.5333 354.236L12.7263 364.038L12.7263 364.038L33.5333 354.236ZM35.6476 289.64L53.7265 303.858L60.9793 294.636L57.7709 283.35L35.6476 289.64ZM23.3497 216.479L0.379028 217.639L0.37903 217.639L23.3497 216.479ZM32.8683 139.654L54.4986 147.473L59.5892 133.39L48.7695 123.037L32.8683 139.654ZM29.3126 134.93L8.94329 145.611L8.94352 145.612L29.3126 134.93ZM26.7247 121.222L3.7268 120.914V120.914L26.7247 121.222ZM28.6994 113.394L8.20747 102.949L8.20745 102.949L28.6994 113.394ZM274.033 75.9083L265.011 97.0647L265.011 97.0648L274.033 75.9083ZM129.377 41.3576L125.599 18.67L125.599 18.67L129.377 41.3576ZM43.8449 121.113L64.3367 131.558L64.3368 131.558L43.8449 121.113ZM43.7384 121.388L21.4866 115.569L21.4843 115.578L43.7384 121.388ZM43.7228 121.449L66.7207 121.756L20.7251 121.123L43.7228 121.449ZM44.3683 127.034L23.9981 137.714L23.999 137.716L44.3683 127.034ZM46.6378 128.539L37.576 149.679L37.5765 149.679L46.6378 128.539ZM48.4474 129.217L41.1719 151.036L44.9286 152.289L48.8879 152.213L48.4474 129.217ZM48.6242 129.192L53.6779 151.629L53.6813 151.629L48.6242 129.192ZM49.7413 128.633L63.4834 147.076L63.4836 147.076L49.7413 128.633ZM118.794 116.656L123.817 94.2117H123.817L118.794 116.656ZM159.5 131.827L168.19 110.532L168.19 110.532L159.5 131.827ZM165.844 135.485L178.752 116.448L178.752 116.448L165.844 135.485ZM172.618 140.186L159.61 159.154L159.61 159.154L172.618 140.186ZM189.267 149.705L180.335 170.9L180.335 170.9L189.267 149.705ZM207.643 153.12L209.709 176.027L209.709 176.027L207.643 153.12ZM227.097 143.884L211.696 126.802L211.695 126.802L227.097 143.884ZM239.102 144.505L256.184 129.104L256.183 129.103L239.102 144.505ZM238.481 156.51L223.079 139.428L223.079 139.428L238.481 156.51ZM209.171 170.051L211.238 192.958L211.238 192.958L209.171 170.051ZM182.665 165.371L173.734 186.566L173.734 186.566L182.665 165.371ZM163.003 154.205L176.011 135.237L176.011 135.237L163.003 154.205ZM156.304 149.555L169.212 130.519L169.212 130.519L156.304 149.555ZM154.055 148.1L142.247 167.838L142.247 167.838L154.055 148.1ZM153.35 147.699L142.697 168.084L142.698 168.084L153.35 147.699ZM153.147 147.599L143.341 168.404L143.342 168.404L153.147 147.599ZM153.077 147.567L161.924 126.336L161.846 126.303L161.767 126.271L153.077 147.567ZM115.081 133.246L120.105 110.801H120.105L115.081 133.246ZM59.8986 142.265L46.1564 123.822L46.1564 123.822L59.8986 142.265ZM48.5724 146.222L48.3856 123.223L32.2625 123.354L26.8878 138.555L48.5724 146.222ZM40.3283 215.62L17.3575 216.78L17.3575 216.78L40.3283 215.62ZM53.2443 289.25L31.218 295.872L31.218 295.872L53.2443 289.25ZM77.1378 321.285L64.753 340.666L67.815 342.623L71.3312 343.54L77.1378 321.285ZM234.351 358.842L230.125 381.45L230.125 381.45L234.351 358.842ZM273.703 347.443L285.53 367.169L285.53 367.169L273.703 347.443ZM320.967 330.724L322.803 307.797H322.803L320.967 330.724ZM328.761 339.875L351.687 341.712L351.688 341.71L328.761 339.875ZM319.609 347.67L321.446 324.743H321.446L319.609 347.67ZM282.444 362.023L294.272 381.749L294.272 381.749L282.444 362.023ZM231.227 375.552L227 398.16H227.001L231.227 375.552ZM72.8429 337.736L78.6496 315.481L78.6493 315.48L72.8429 337.736ZM68.1867 335.741L80.4742 316.299L80.4742 316.299L68.1867 335.741ZM43.8234 309.991L63.7277 298.467L37.6898 253.497L21.9096 303.007L43.8234 309.991ZM48.9122 346.992L28.1052 356.794H28.1052L48.9122 346.992ZM103.811 407.879L90.4829 426.624L90.4829 426.624L103.811 407.879ZM284.764 426.501L272.52 407.031H272.52L284.764 426.501ZM357.812 377.79L371.824 396.029L371.824 396.029L357.812 377.79ZM395.301 338.43L415.314 349.764L415.314 349.764L395.301 338.43ZM398.415 220.565L421.065 216.564L418.496 202.02L404.202 198.304L398.415 220.565ZM379.464 213.68L369.887 234.591V234.591L379.464 213.68ZM371.556 209.75L382.465 189.502L382.465 189.502L371.556 209.75ZM369.302 208.502L357.892 228.472V228.472L369.302 208.502ZM368.677 208.14L357.045 227.982L357.047 227.983L368.677 208.14ZM368.499 208.035L356.749 227.807L356.757 227.812L356.765 227.817L368.499 208.035ZM368.445 208.003L380.234 188.254L380.228 188.25L380.222 188.247L368.445 208.003ZM368.427 207.992L356.624 227.733L356.629 227.736L368.427 207.992ZM368.42 207.988L380.231 188.253L380.199 188.234L380.167 188.215L368.42 207.988ZM368.417 207.986L346.85 199.996L340.189 217.974L356.675 227.763L368.417 207.986ZM372.788 200.696L392.511 212.529L353.066 188.863L372.788 200.696ZM368.415 207.985L356.582 227.708L376.305 239.542L388.138 219.818L368.415 207.985ZM365.5 196.323L345.778 184.489L345.778 184.49L365.5 196.323ZM377.158 193.406L365.397 213.172L377.158 193.406ZM377.172 193.414L388.913 173.637L388.901 173.63L377.172 193.414ZM377.273 193.474L365.641 213.316L365.641 213.316L377.273 193.474ZM377.735 193.741L366.325 213.711L366.326 213.712L377.735 193.741ZM379.619 194.784L390.528 174.536L390.528 174.536L379.619 194.784ZM386.542 198.224L396.119 177.312L396.119 177.312L386.542 198.224ZM407.317 205.142L403.181 227.767L403.181 227.767L407.317 205.142ZM422.868 204.714L430.771 226.314L430.771 226.314L422.868 204.714ZM435.004 195.697L453.983 208.689L453.984 208.689L435.004 195.697ZM440.442 181.092L463.028 185.436L463.028 185.435L440.442 181.092ZM438.247 169.15L456.326 154.932L456.326 154.931L438.247 169.15ZM425.43 161.201L433.166 139.541L433.165 139.541L425.43 161.201ZM401.629 159.178L399.883 136.244L399.883 136.244L401.629 159.178ZM379.921 162.638L374.644 140.251L374.644 140.251L379.921 162.638ZM363.146 158.646L348.121 176.06L348.122 176.061L363.146 158.646ZM327.876 116.858L307.813 128.104L307.817 128.11L307.82 128.117L327.876 116.858ZM327.609 116.382L306.289 125.009L306.835 126.359L307.547 127.629L327.609 116.382ZM327.404 115.875L306.073 124.475L306.078 124.488L306.084 124.502L327.404 115.875ZM310.399 87.9982L325.278 70.4599L325.278 70.4597L310.399 87.9982ZM279.362 77.3078L281.939 54.4525V54.4525L279.362 77.3078ZM377.155 193.404L388.935 173.65L364.397 212.542L377.155 193.404ZM126.584 24.589L130.362 47.2766C163.132 41.8197 206.533 53.6449 271.68 81.428L280.702 60.2716L289.725 39.1152C225.334 11.6545 170.368 -6.01881 122.806 1.90142L126.584 24.589ZM280.702 60.2716L271.687 81.4312C273.96 82.3996 276.353 83.0069 278.69 83.2704L281.267 60.4152L283.843 37.56C284.97 37.6869 285.946 37.8887 286.757 38.0997C287.533 38.302 288.551 38.6149 289.717 39.112L280.702 60.2716ZM281.267 60.4152L278.69 83.2704C293.838 84.978 301.447 88.2711 306.517 92.5728L321.397 75.0343L336.276 57.4958C321.343 44.8266 303.362 39.7603 283.843 37.5599L281.267 60.4152ZM321.397 75.0343L306.517 92.5728C311.794 97.0496 316.171 104.144 321.641 117.63L342.954 108.985L364.268 100.341C358.212 85.41 350.436 69.509 336.276 57.4959L321.397 75.0343ZM342.954 108.985L322.928 120.296C332.998 138.127 342.26 148.552 359.226 163.189L374.25 145.775L389.274 128.36C375.296 116.3 369.853 109.842 362.981 97.6748L342.954 108.985ZM374.25 145.775L359.232 163.195C365.393 168.506 373.651 170.281 381.298 168.478L376.021 146.092L370.743 123.706C376.732 122.294 383.733 123.582 389.268 128.354L374.25 145.775ZM376.021 146.092L381.298 168.478C386.089 167.349 393.841 165.788 402.085 165.16L400.339 142.227L398.593 119.293C387.112 120.167 376.833 122.27 370.743 123.706L376.021 146.092ZM400.339 142.227L402.085 165.16C410.617 164.511 418.195 164.99 423.412 166.853L431.148 145.193L438.883 123.532C424.639 118.445 409.439 118.467 398.593 119.293L400.339 142.227ZM431.148 145.193L423.412 166.853C429.181 168.913 432.169 171.128 433.531 172.859L451.609 158.641L469.688 144.423C460.735 133.039 448.56 126.988 438.883 123.533L431.148 145.193ZM451.609 158.641L433.531 172.859C434.401 173.966 435.367 175.709 434.55 179.959L457.136 184.302L479.722 188.645C482.771 172.793 479.699 157.151 469.688 144.423L451.609 158.641ZM457.136 184.302L434.55 179.958C433.491 185.461 432.033 189.415 430.053 192.309L449.032 205.3L468.012 218.291C474.968 208.129 478.056 197.307 479.722 188.645L457.136 184.302ZM449.032 205.3L430.053 192.308C428.26 194.928 425.61 197.323 420.807 199.08L428.709 220.68L436.612 242.28C450.149 237.327 460.651 229.045 468.012 218.292L449.032 205.3ZM428.709 220.68L420.807 199.08C419.584 199.528 417.9 199.862 415.631 199.907L416.082 222.902L416.533 245.898C422.744 245.776 429.641 244.83 436.611 242.28L428.709 220.68ZM416.082 222.902L393.415 226.803C403.355 284.563 402.849 312.926 390.08 335.473L410.093 346.808L430.106 358.142C451.772 319.888 448.594 276.213 438.749 219.002L416.082 222.902ZM410.093 346.808L390.08 335.473C383.164 347.684 371.998 359.324 354.156 373.032L368.169 391.271L382.182 409.509C402.253 394.088 418.853 378.011 430.106 358.142L410.093 346.808ZM368.169 391.271L354.156 373.032C336.251 386.789 312.646 401.88 281.57 421.423L293.814 440.893L306.057 460.363C336.72 441.081 362.247 424.825 382.182 409.509L368.169 391.271ZM293.814 440.893L281.57 421.423C226.773 455.882 157.817 438.915 107.288 402.989L93.9601 421.734L80.6324 440.478C138.616 481.705 228.771 508.965 306.057 460.363L293.814 440.893ZM93.9601 421.734L107.288 402.989C82.2716 385.202 63.4847 363.848 54.3404 344.435L33.5333 354.236L12.7263 364.038C26.1237 392.479 51.1145 419.491 80.6323 440.478L93.9601 421.734ZM33.5333 354.236L54.3404 344.435C45.6996 326.092 46.8507 312.601 53.7265 303.858L35.6476 289.64L17.5687 275.422C-4.54096 303.535 0.349075 337.762 12.7263 364.038L33.5333 354.236ZM35.6476 289.64L57.7709 283.35C52.2077 263.782 47.5546 239.751 46.3205 215.318L23.3497 216.479L0.37903 217.639C1.8167 246.102 7.17621 273.6 13.5243 295.929L35.6476 289.64ZM23.3497 216.479L46.3205 215.318C45.1057 191.268 47.2422 167.548 54.4986 147.473L32.8683 139.654L11.238 131.836C1.20663 159.588 -1.02032 189.934 0.379028 217.639L23.3497 216.479ZM32.8683 139.654L48.7695 123.037C49.1081 123.361 49.4418 123.791 49.6818 124.248L29.3126 134.93L8.94352 145.612C11.1303 149.781 13.8805 153.319 16.9671 156.272L32.8683 139.654ZM29.3126 134.93L49.682 124.249C49.957 124.773 49.9325 124.981 49.8599 124.532C49.7783 124.028 49.7014 123.125 49.7227 121.529L26.7247 121.222L3.7268 120.914C3.6501 126.654 3.99233 136.17 8.94329 145.611L29.3126 134.93ZM26.7247 121.222L49.7227 121.529C49.7083 122.607 49.4352 123.359 49.1913 123.838L28.6994 113.394L8.20745 102.949C5.6468 107.974 3.81771 114.112 3.7268 120.914L26.7247 121.222ZM28.6994 113.394L49.1912 123.838C74.8088 73.5756 99.6269 52.3948 130.362 47.2766L126.584 24.589L122.806 1.90142C70.8417 10.5548 36.5049 47.4292 8.20747 102.949L28.6994 113.394ZM274.033 75.9083L283.056 54.752C218.401 27.1785 167.701 11.6592 125.599 18.67L129.377 41.3576L133.155 64.0452C160.445 59.501 199.554 69.1493 265.011 97.0647L274.033 75.9083ZM129.377 41.3576L125.599 18.67C81.4939 26.0145 50.6702 57.072 23.353 110.669L43.8449 121.113L64.3368 131.558C88.9435 83.2785 110.237 67.8615 133.155 64.0451L129.377 41.3576ZM43.8449 121.113L23.353 110.669C22.5579 112.229 21.9294 113.876 21.4866 115.569L43.7384 121.388L65.9902 127.206C65.5876 128.746 65.0294 130.199 64.3367 131.558L43.8449 121.113ZM43.7384 121.388L21.4843 115.578C21.2413 116.509 21.067 117.405 20.9471 118.258C20.9328 118.36 20.9203 118.453 20.9095 118.537C20.8989 118.62 20.8904 118.691 20.8916 118.68C20.8918 118.679 20.8948 118.654 20.8986 118.624C20.9011 118.604 20.9122 118.515 20.9274 118.401C20.9351 118.344 20.95 118.235 20.9703 118.097C20.9848 118 21.0306 117.692 21.103 117.299C21.1372 117.113 21.2134 116.71 21.3325 116.204C21.3595 116.089 21.7242 114.424 22.5561 112.467C23.2049 111.073 25.9354 106.885 28.3295 104.377C35.7887 99.8787 53.5526 100.674 61.0682 106.364C63.3663 109.504 65.6633 114.569 66.1078 116.187C66.2965 117.063 66.5285 118.488 66.5931 119.034C66.6968 120.009 66.7129 120.775 66.7175 121.004C66.7243 121.339 66.7222 121.607 66.7203 121.756C66.7166 122.054 66.7077 122.287 66.7041 122.377C66.6963 122.575 66.6874 122.731 66.6859 122.758C66.6818 122.832 66.6767 122.912 66.6792 122.872C66.6943 122.626 66.7138 122.245 66.7205 121.776L43.7228 121.449L20.7251 121.123C20.7315 120.673 20.7504 120.303 20.7652 120.061C20.7676 120.021 20.7626 120.102 20.7584 120.176C20.7569 120.203 20.748 120.358 20.7402 120.557C20.7366 120.647 20.7277 120.88 20.724 121.178C20.7221 121.327 20.7201 121.595 20.7268 121.931C20.7314 122.159 20.7475 122.925 20.8513 123.901C20.9158 124.446 21.1478 125.872 21.3365 126.747C21.781 128.365 24.078 133.43 26.3761 136.571C33.8917 142.26 51.6557 143.055 59.1148 138.557C61.5089 136.049 64.2394 131.861 64.8882 130.467C65.7202 128.51 66.0848 126.845 66.1118 126.73C66.2309 126.224 66.3071 125.821 66.3414 125.635C66.4137 125.243 66.4595 124.934 66.474 124.837C66.4943 124.699 66.5092 124.59 66.5169 124.533C66.5322 124.419 66.5433 124.33 66.5458 124.31C66.5497 124.279 66.5527 124.254 66.5528 124.253C66.5542 124.242 66.5458 124.311 66.5354 124.392C66.5249 124.474 66.5127 124.566 66.4987 124.665C66.3818 125.496 66.2156 126.343 65.9926 127.198L43.7384 121.388ZM43.7228 121.449L20.7248 121.142C20.6601 125.991 21.0353 132.063 23.9981 137.714L44.3683 127.034L64.7385 116.355C66.1087 118.968 66.5256 121.091 66.6499 121.869C66.7782 122.672 66.7072 122.771 66.7207 121.756L43.7228 121.449ZM44.3683 127.034L23.999 137.716C23.3687 136.514 24.5105 138.864 25.8629 140.722C27.1871 142.54 28.6388 143.999 30.0293 145.158C32.6487 147.342 35.3838 148.739 37.576 149.679L46.6378 128.539L55.6997 107.4C55.8595 107.468 57.4825 108.156 59.4866 109.827C60.5694 110.73 61.8376 111.98 63.0495 113.645C63.6628 114.487 64.1757 115.317 64.6035 116.105C64.8084 116.482 64.9596 116.786 65.036 116.942C65.2608 117.401 64.9364 116.732 64.7376 116.353L44.3683 127.034ZM46.6378 128.539L37.5765 149.679C38.782 150.196 39.9916 150.642 41.1719 151.036L48.4474 129.217L55.7229 107.398C55.6672 107.379 55.625 107.365 55.5954 107.354C55.5657 107.344 55.55 107.338 55.5472 107.337C55.5444 107.336 55.556 107.34 55.5809 107.35C55.6058 107.36 55.6456 107.376 55.6992 107.399L46.6378 128.539ZM48.4474 129.217L48.8879 152.213C50.6439 152.179 52.2522 151.951 53.6779 151.629L48.6242 129.192L43.5704 106.754C44.8131 106.474 46.3078 106.254 48.0069 106.221L48.4474 129.217ZM48.6242 129.192L53.6813 151.629C57.3925 150.792 60.7152 149.139 63.4834 147.076L49.7413 128.633L35.9992 110.19C37.8561 108.806 40.3658 107.476 43.567 106.754L48.6242 129.192ZM49.7413 128.633L63.4836 147.076C78.6904 135.745 96.6888 135.278 113.771 139.101L118.794 116.656L123.817 94.2117C100.061 88.8947 66.2867 87.6221 35.9991 110.19L49.7413 128.633ZM118.794 116.656L113.771 139.101C131.382 143.043 144.118 150.392 150.81 153.122L159.5 131.827L168.19 110.532C168.409 110.622 168.306 110.586 167.367 110.142C167.165 110.047 164.984 109.01 164.264 108.67C161.7 107.46 158.294 105.884 154.281 104.19C146.329 100.831 135.672 96.8648 123.817 94.2117L118.794 116.656ZM159.5 131.827L150.81 153.122C150.583 153.03 150.494 152.98 150.56 153.014C150.622 153.046 150.763 153.123 150.996 153.261C151.492 153.558 152.095 153.951 152.936 154.521L165.844 135.485L178.752 116.448C176.997 115.258 172.872 112.443 168.19 110.532L159.5 131.827ZM165.844 135.485L152.936 154.521C155.042 155.949 156.553 157.057 159.61 159.154L172.618 140.186L185.626 121.217C184.338 120.334 180.243 117.459 178.752 116.448L165.844 135.485ZM172.618 140.186L159.61 159.154C164.914 162.791 172.062 167.414 180.335 170.9L189.267 149.705L198.198 128.51C194.291 126.864 190.206 124.358 185.626 121.217L172.618 140.186ZM189.267 149.705L180.335 170.9C188.637 174.398 198.689 177.021 209.709 176.027L207.643 153.12L205.577 130.213C204.349 130.324 202.043 130.13 198.198 128.51L189.267 149.705ZM207.643 153.12L209.709 176.027C220.981 175.01 232.14 170.305 242.499 160.966L227.097 143.884L211.695 126.802C209.822 128.491 208.435 129.28 207.585 129.662C206.763 130.032 206.129 130.163 205.576 130.213L207.643 153.12ZM227.097 143.884L242.498 160.966C236.55 166.329 227.382 165.854 222.02 159.907L239.102 144.505L256.183 129.103C244.534 116.183 224.616 115.153 211.696 126.802L227.097 143.884ZM239.102 144.505L222.019 159.906C216.657 153.959 217.132 144.791 223.079 139.428L238.481 156.51L253.882 173.592C266.802 161.942 267.833 142.024 256.184 129.104L239.102 144.505ZM238.481 156.51L223.079 139.428C217.054 144.861 211.697 146.73 207.104 147.144L209.171 170.051L211.238 192.958C226.43 191.587 240.989 185.217 253.882 173.592L238.481 156.51ZM209.171 170.051L207.104 147.144C202.259 147.581 197.091 146.491 191.597 144.176L182.665 165.371L173.734 186.566C183.679 190.757 196.595 194.279 211.238 192.958L209.171 170.051ZM182.665 165.371L191.597 144.176C186.073 141.848 180.854 138.558 176.011 135.237L163.003 154.205L149.995 173.173C155.575 177 163.853 182.402 173.734 186.566L182.665 165.371ZM163.003 154.205L176.011 135.237C174.206 133.999 170.841 131.623 169.212 130.519L156.304 149.555L143.396 168.591C145.916 170.3 145.994 170.43 149.995 173.173L163.003 154.205ZM156.304 149.555L169.212 130.519C168.14 129.792 166.998 129.041 165.862 128.362L154.055 148.1L142.247 167.838C142.313 167.877 142.645 168.082 143.396 168.591L156.304 149.555ZM154.055 148.1L165.862 128.362C165.345 128.053 164.705 127.682 164.001 127.315L153.35 147.699L142.698 168.084C142.507 167.985 142.375 167.91 142.315 167.877C142.251 167.84 142.227 167.825 142.247 167.838L154.055 148.1ZM153.35 147.699L164.002 127.315C163.519 127.062 163.134 126.879 162.952 126.793L153.147 147.599L143.342 168.404C143.316 168.392 143.224 168.348 143.103 168.289C142.981 168.23 142.845 168.161 142.697 168.084L153.35 147.699ZM153.147 147.599L162.952 126.794C162.892 126.766 162.827 126.735 162.759 126.704C162.727 126.689 162.679 126.667 162.623 126.641C162.596 126.629 162.547 126.606 162.486 126.579C162.456 126.566 162.404 126.542 162.338 126.514C162.303 126.498 162.138 126.425 161.924 126.336L153.077 147.567L144.23 168.797C144.107 168.746 144.009 168.703 143.957 168.681C143.899 168.656 143.85 168.635 143.818 168.62C143.753 168.592 143.701 168.569 143.672 168.556C143.613 168.529 143.566 168.508 143.543 168.497C143.493 168.474 143.454 168.456 143.433 168.447C143.388 168.426 143.357 168.411 143.341 168.404L153.147 147.599ZM153.077 147.567L161.767 126.271C159.147 125.202 140.831 115.44 120.105 110.801L115.081 133.246L110.058 155.691C125.863 159.228 135.056 165.054 144.387 168.862L153.077 147.567ZM115.081 133.246L120.105 110.801C98.788 106.031 70.8559 105.418 46.1564 123.822L59.8986 142.265L73.6408 160.708C83.3036 153.508 95.4952 152.432 110.058 155.691L115.081 133.246ZM59.8986 142.265L46.1564 123.822C46.3198 123.7 46.5043 123.59 46.7783 123.488C47.0703 123.38 47.6155 123.229 48.3856 123.223L48.5724 146.222L48.7592 169.221C58.9534 169.138 67.5822 165.222 73.6408 160.708L59.8986 142.265ZM48.5724 146.222L26.8878 138.555C18.182 163.178 16.0392 190.68 17.3575 216.78L40.3283 215.62L63.299 214.46C62.1644 191.997 64.2126 170.985 70.257 153.889L48.5724 146.222ZM40.3283 215.62L17.3575 216.78C18.819 245.715 24.5794 273.788 31.218 295.872L53.2443 289.25L75.2705 282.629C69.5174 263.491 64.544 239.109 63.299 214.46L40.3283 215.62ZM53.2443 289.25L31.218 295.872C39.3378 322.882 58.9535 336.96 64.753 340.666L77.1378 321.285L89.5227 301.904C87.6541 300.71 78.7798 294.302 75.2705 282.629L53.2443 289.25ZM77.1378 321.285L71.3312 343.54C83.198 346.636 183.786 372.788 230.125 381.45L234.351 358.842L238.577 336.234C194.216 327.941 95.4957 302.305 82.9445 299.03L77.1378 321.285ZM234.351 358.842L230.125 381.45C253.677 385.853 272.1 375.221 285.53 367.169L273.703 347.443L261.876 327.716C248.046 336.009 243.373 337.13 238.577 336.234L234.351 358.842ZM273.703 347.443L285.53 367.169C300.452 358.222 309.141 352.85 319.131 353.65L320.967 330.724L322.803 307.797C295.015 305.571 272.374 321.422 261.876 327.716L273.703 347.443ZM320.967 330.724L319.131 353.65C311.146 353.011 305.195 346.02 305.834 338.04L328.761 339.875L351.688 341.71C353.076 324.372 340.146 309.186 322.803 307.797L320.967 330.724ZM328.761 339.875L305.834 338.039C306.473 330.059 313.46 324.104 321.446 324.743L319.609 347.67L317.773 370.597C335.118 371.986 350.299 359.05 351.687 341.712L328.761 339.875ZM319.609 347.67L321.446 324.743C310.295 323.85 300.688 326.594 292.537 330.195C284.945 333.549 277.22 338.338 270.617 342.297L282.444 362.023L294.272 381.749C302.099 377.056 306.815 374.176 311.127 372.271C314.88 370.613 316.641 370.506 317.773 370.597L319.609 347.67ZM282.444 362.023L270.617 342.297C256.97 350.479 247.198 355.139 235.453 352.944L231.227 375.552L227.001 398.16C257.44 403.85 280.9 389.766 294.272 381.749L282.444 362.023ZM231.227 375.552L235.453 352.944C190.358 344.514 90.9351 318.686 78.6496 315.481L72.8429 337.736L67.0363 359.99C78.6413 363.018 179.929 389.361 227 398.16L231.227 375.552ZM72.8429 337.736L78.6493 315.48C78.9931 315.57 79.6793 315.796 80.4742 316.299L68.1867 335.741L55.8991 355.184C59.8606 357.688 63.7428 359.131 67.0365 359.991L72.8429 337.736ZM68.1867 335.741L80.4742 316.299C78.2728 314.907 69.8776 309.088 63.7277 298.467L43.8234 309.991L23.9191 321.516C35.212 341.02 50.3498 351.677 55.8991 355.184L68.1867 335.741ZM43.8234 309.991L21.9096 303.007C16.2461 320.776 19.9952 339.577 28.1052 356.794L48.9122 346.992L69.7193 337.191C64.4364 325.976 64.8688 319.7 65.7372 316.976L43.8234 309.991ZM48.9122 346.992L28.1052 356.794C39.9304 381.897 62.6278 406.819 90.4829 426.624L103.811 407.879L117.138 389.134C93.7882 372.532 77.2927 353.269 69.7193 337.191L48.9122 346.992ZM103.811 407.879L90.4829 426.624C145.745 465.915 228.056 489.332 297.008 445.971L284.764 426.501L272.52 407.031C225.984 436.295 164.844 423.053 117.138 389.134L103.811 407.879ZM284.764 426.501L297.008 445.971C327.821 426.594 352.639 410.769 371.824 396.029L357.812 377.79L343.799 359.552C326.644 372.732 303.753 387.39 272.52 407.031L284.764 426.501ZM357.812 377.79L371.824 396.029C391.07 381.242 405.664 366.804 415.314 349.764L395.301 338.43L375.288 327.095C369.976 336.473 360.82 346.474 343.799 359.552L357.812 377.79ZM395.301 338.43L415.314 349.764C434.289 316.26 431.716 276.87 421.065 216.564L398.415 220.565L375.766 224.565C386.653 286.209 385.145 309.69 375.288 327.095L395.301 338.43ZM398.415 220.565L404.202 198.304C398.74 196.885 393.395 194.763 389.041 192.768L379.464 213.68L369.887 234.591C375.742 237.272 383.725 240.51 392.629 242.825L398.415 220.565ZM379.464 213.68L389.041 192.768C386.297 191.512 384.026 190.343 382.465 189.502L371.556 209.75L360.647 229.998C362.917 231.221 366.086 232.85 369.887 234.591L379.464 213.68ZM371.556 209.75L382.465 189.502C381.682 189.08 381.088 188.747 380.712 188.532L369.302 208.502L357.892 228.472C358.582 228.867 359.511 229.386 360.647 229.999L371.556 209.75ZM369.302 208.502L380.712 188.532C380.56 188.445 380.441 188.375 380.307 188.297L368.677 208.14L357.047 227.983C357.211 228.079 357.51 228.254 357.892 228.472L369.302 208.502ZM368.677 208.14L380.308 188.298C380.268 188.274 380.245 188.261 380.227 188.25C380.223 188.248 380.22 188.246 380.218 188.245C380.216 188.243 380.215 188.243 380.215 188.243C380.215 188.243 380.217 188.244 380.22 188.246C380.222 188.247 380.227 188.25 380.233 188.253L368.499 208.035L356.765 227.817C356.873 227.881 356.993 227.951 357.045 227.982L368.677 208.14ZM368.499 208.035L380.249 188.263C380.274 188.278 380.294 188.29 380.31 188.299C380.324 188.308 380.335 188.314 380.337 188.316C380.337 188.316 380.337 188.316 380.337 188.316C380.336 188.315 380.336 188.315 380.334 188.314C380.332 188.313 380.326 188.309 380.318 188.304C380.311 188.3 380.3 188.293 380.286 188.285C380.273 188.277 380.255 188.266 380.234 188.254L368.445 208.003L356.656 227.752C356.624 227.733 356.6 227.718 356.595 227.715C356.592 227.713 356.59 227.712 356.591 227.713C356.592 227.713 356.597 227.716 356.602 227.719C356.624 227.732 356.679 227.766 356.749 227.807L368.499 208.035ZM368.445 208.003L380.222 188.247C380.164 188.212 380.113 188.182 380.067 188.155C380.022 188.129 379.982 188.106 379.949 188.087C379.917 188.068 379.889 188.052 379.87 188.041C379.86 188.035 379.852 188.031 379.846 188.027C379.839 188.024 379.835 188.021 379.832 188.019C379.831 188.019 379.83 188.018 379.83 188.018C379.829 188.018 379.83 188.018 379.83 188.018C379.832 188.019 379.836 188.021 379.841 188.024C379.846 188.028 379.855 188.032 379.865 188.038C379.875 188.044 379.888 188.051 379.903 188.06C379.918 188.068 379.936 188.079 379.956 188.091C379.976 188.102 380 188.116 380.026 188.131C380.053 188.147 380.082 188.164 380.115 188.184C380.148 188.203 380.185 188.225 380.225 188.249L368.427 207.992L356.629 227.736C356.709 227.784 356.778 227.825 356.831 227.855C356.884 227.886 356.929 227.912 356.959 227.93C356.99 227.947 357.014 227.961 357.025 227.967C357.031 227.971 357.036 227.974 357.038 227.975C357.039 227.975 357.039 227.975 357.039 227.975C357.039 227.976 357.04 227.976 357.04 227.976C357.04 227.976 357.04 227.976 357.04 227.976C357.04 227.976 357.04 227.976 357.04 227.976C357.04 227.976 357.039 227.976 357.039 227.975C357.036 227.974 357.023 227.966 357.006 227.956C356.988 227.946 356.962 227.931 356.931 227.913C356.87 227.878 356.779 227.825 356.669 227.76L368.445 208.003ZM368.427 207.992L380.229 188.251C380.136 188.196 380.054 188.147 379.985 188.107C379.915 188.067 379.855 188.033 379.808 188.006C379.784 187.992 379.763 187.98 379.744 187.969C379.726 187.959 379.709 187.95 379.696 187.942C379.683 187.935 379.672 187.929 379.665 187.925C379.657 187.92 379.651 187.917 379.649 187.916C379.648 187.916 379.647 187.915 379.648 187.915C379.648 187.915 379.649 187.916 379.651 187.917C379.654 187.919 379.661 187.923 379.67 187.928C379.679 187.933 379.692 187.94 379.708 187.949C379.723 187.958 379.743 187.968 379.765 187.981C379.787 187.994 379.814 188.009 379.844 188.026C379.874 188.043 379.908 188.063 379.946 188.085C379.984 188.107 380.027 188.132 380.074 188.16C380.121 188.187 380.174 188.219 380.231 188.253L368.42 207.988L356.609 227.724C356.666 227.758 356.719 227.79 356.767 227.818C356.814 227.846 356.857 227.871 356.896 227.893C356.934 227.915 356.968 227.935 356.999 227.952C357.029 227.969 357.055 227.985 357.078 227.997C357.101 228.01 357.121 228.021 357.136 228.03C357.152 228.039 357.165 228.047 357.175 228.052C357.184 228.057 357.192 228.061 357.195 228.063C357.197 228.064 357.198 228.065 357.198 228.065C357.199 228.065 357.198 228.065 357.197 228.065C357.196 228.064 357.19 228.061 357.183 228.057C357.176 228.052 357.165 228.046 357.152 228.039C357.139 228.032 357.123 228.023 357.105 228.013C357.087 228.002 357.066 227.99 357.042 227.977C356.995 227.95 356.936 227.916 356.867 227.876C356.799 227.836 356.717 227.788 356.624 227.733L368.427 207.992ZM368.42 207.988L380.167 188.215C380.235 188.255 380.299 188.293 380.357 188.329C380.415 188.364 380.47 188.397 380.52 188.429C380.57 188.46 380.618 188.489 380.661 188.517C380.705 188.544 380.746 188.57 380.784 188.594C380.823 188.619 380.859 188.642 380.892 188.664C380.926 188.685 380.957 188.706 380.987 188.725C381.045 188.763 381.098 188.798 381.143 188.828C381.189 188.858 381.229 188.885 381.264 188.909C381.299 188.933 381.331 188.954 381.357 188.972C381.383 188.99 381.406 189.005 381.425 189.018C381.443 189.031 381.459 189.042 381.47 189.049C381.481 189.057 381.49 189.063 381.494 189.066C381.495 189.066 381.496 189.067 381.496 189.067C381.496 189.067 381.497 189.067 381.497 189.068C381.497 189.068 381.497 189.068 381.497 189.068C381.497 189.068 381.496 189.067 381.494 189.066C381.492 189.064 381.489 189.062 381.484 189.059C381.48 189.056 381.474 189.052 381.467 189.047C381.46 189.042 381.451 189.036 381.441 189.029C381.431 189.022 381.419 189.014 381.406 189.005C381.392 188.996 381.376 188.985 381.358 188.972C381.34 188.96 381.319 188.946 381.295 188.93C381.272 188.914 381.245 188.896 381.214 188.875C381.184 188.855 381.148 188.831 381.108 188.805C381.069 188.779 381.022 188.748 380.969 188.714C380.943 188.696 380.914 188.678 380.883 188.658C380.853 188.638 380.819 188.617 380.783 188.594C380.747 188.571 380.708 188.546 380.666 188.519C380.624 188.493 380.577 188.464 380.527 188.433C380.477 188.402 380.421 188.368 380.361 188.331C380.301 188.294 380.233 188.254 380.16 188.21L368.417 207.986L356.675 227.763C356.601 227.719 356.534 227.679 356.473 227.642C356.413 227.605 356.357 227.571 356.307 227.54C356.257 227.509 356.211 227.48 356.168 227.454C356.126 227.427 356.087 227.402 356.051 227.379C356.015 227.356 355.982 227.335 355.951 227.315C355.92 227.295 355.892 227.277 355.865 227.259C355.813 227.225 355.766 227.195 355.726 227.168C355.687 227.142 355.651 227.118 355.621 227.098C355.59 227.078 355.563 227.059 355.54 227.043C355.516 227.028 355.495 227.013 355.477 227.001C355.459 226.989 355.443 226.978 355.43 226.969C355.416 226.959 355.404 226.951 355.394 226.944C355.384 226.938 355.375 226.932 355.369 226.927C355.362 226.922 355.356 226.918 355.352 226.915C355.347 226.912 355.344 226.91 355.342 226.908C355.34 226.907 355.339 226.906 355.339 226.907C355.339 226.907 355.34 226.907 355.34 226.907C355.341 226.908 355.342 226.908 355.343 226.909C355.346 226.911 355.355 226.918 355.367 226.925C355.378 226.933 355.394 226.944 355.412 226.957C355.431 226.97 355.454 226.986 355.481 227.004C355.507 227.022 355.538 227.043 355.574 227.066C355.609 227.09 355.65 227.117 355.695 227.148C355.741 227.178 355.794 227.213 355.852 227.251C355.882 227.27 355.914 227.291 355.947 227.313C355.981 227.334 356.017 227.357 356.055 227.382C356.093 227.406 356.134 227.432 356.178 227.46C356.222 227.487 356.269 227.517 356.32 227.548C356.37 227.579 356.425 227.613 356.483 227.648C356.541 227.684 356.605 227.722 356.673 227.762L368.42 207.988ZM368.417 207.986L389.984 215.977C389.754 216.598 389.541 217.091 389.406 217.393C389.262 217.713 389.136 217.974 389.048 218.153C388.878 218.498 388.735 218.767 388.665 218.896C388.523 219.159 388.408 219.361 388.377 219.414C388.299 219.551 388.237 219.655 388.237 219.656C388.216 219.691 388.211 219.699 388.251 219.633C388.319 219.519 388.459 219.285 388.741 218.815C389.3 217.881 390.39 216.065 392.511 212.53L372.788 200.696L353.066 188.863C350.946 192.397 349.851 194.221 349.286 195.164C349.006 195.632 348.848 195.895 348.759 196.044C348.72 196.109 348.672 196.191 348.627 196.266C348.615 196.287 348.545 196.404 348.463 196.548C348.43 196.605 348.313 196.809 348.171 197.074C348.1 197.204 347.957 197.473 347.786 197.819C347.67 198.055 347.261 198.885 346.85 199.996L368.417 207.986ZM372.788 200.696L353.065 188.864L348.692 196.153L368.415 207.985L388.138 219.818L392.511 212.529L372.788 200.696ZM368.415 207.985L380.249 188.263C387.117 192.384 389.342 201.292 385.222 208.157L365.5 196.323L345.778 184.49C336.828 199.406 341.662 218.756 356.582 227.708L368.415 207.985ZM365.5 196.323L385.222 208.158C381.103 215.022 372.2 217.25 365.333 213.134L377.158 193.406L388.983 173.679C374.067 164.738 354.727 169.576 345.778 184.489L365.5 196.323ZM377.158 193.406L365.397 213.172C365.462 213.21 365.52 213.245 365.57 213.274C365.619 213.303 365.663 213.328 365.7 213.349C365.737 213.37 365.77 213.389 365.796 213.404C365.822 213.419 365.845 213.432 365.862 213.441C365.88 213.451 365.894 213.459 365.904 213.465C365.914 213.471 365.922 213.475 365.926 213.477C365.927 213.478 365.929 213.479 365.929 213.479C365.93 213.479 365.929 213.479 365.929 213.479C365.927 213.478 365.923 213.475 365.916 213.472C365.863 213.442 365.677 213.338 365.443 213.199L377.172 193.414L388.901 173.63C388.78 173.558 388.673 173.496 388.588 173.447C388.546 173.423 388.508 173.402 388.479 173.385C388.449 173.368 388.425 173.355 388.411 173.347C388.405 173.344 388.399 173.341 388.398 173.34C388.397 173.339 388.396 173.338 388.396 173.339C388.396 173.339 388.398 173.34 388.399 173.34C388.402 173.342 388.409 173.346 388.419 173.351C388.428 173.357 388.442 173.365 388.459 173.374C388.476 173.384 388.498 173.396 388.524 173.411C388.55 173.426 388.582 173.444 388.619 173.465C388.655 173.486 388.699 173.511 388.748 173.54C388.797 173.569 388.855 173.602 388.92 173.641L377.158 193.406ZM377.172 193.414L365.431 213.192C365.415 213.182 365.401 213.174 365.415 213.182C365.423 213.187 365.441 213.198 365.462 213.21C365.508 213.237 365.568 213.273 365.641 213.316L377.273 193.474L388.904 173.632C388.916 173.639 388.927 173.645 388.937 173.651C388.947 173.657 388.955 173.662 388.96 173.665C388.965 173.668 388.968 173.669 388.962 173.666C388.961 173.666 388.959 173.664 388.957 173.663C388.955 173.661 388.951 173.66 388.948 173.657C388.944 173.655 388.939 173.652 388.933 173.649C388.928 173.646 388.921 173.641 388.913 173.637L377.172 193.414ZM377.273 193.474L365.641 213.316C365.806 213.412 366.035 213.546 366.325 213.711L377.735 193.741L389.146 173.771C389.015 173.697 388.933 173.649 388.904 173.632L377.273 193.474ZM377.735 193.741L366.326 213.712C366.898 214.039 367.704 214.49 368.711 215.033L379.619 194.784L390.528 174.536C389.884 174.189 389.414 173.924 389.145 173.771L377.735 193.741ZM379.619 194.784L368.71 215.033C370.717 216.114 373.554 217.573 376.965 219.135L386.542 198.224L396.119 177.312C393.767 176.235 391.828 175.236 390.528 174.536L379.619 194.784ZM386.542 198.224L376.965 219.135C383.653 222.198 393.134 225.931 403.181 227.767L407.317 205.142L411.452 182.517C406.693 181.647 401.115 179.601 396.119 177.312L386.542 198.224ZM407.317 205.142L403.181 227.767C411.371 229.264 421.336 229.765 430.771 226.314L422.868 204.714L414.966 183.114C415.841 182.794 416.085 182.892 415.343 182.911C414.631 182.929 413.354 182.864 411.452 182.516L407.317 205.142ZM422.868 204.714L430.771 226.314C441.082 222.541 448.681 216.435 453.983 208.689L435.004 195.697L416.025 182.706C416.003 182.737 416.018 182.712 416.068 182.659C416.119 182.604 416.164 182.565 416.184 182.55C416.202 182.536 416.145 182.583 415.974 182.676C415.799 182.771 415.478 182.927 414.966 183.114L422.868 204.714ZM435.004 195.697L453.984 208.689C459.102 201.212 461.587 192.927 463.028 185.436L440.442 181.092L417.855 176.748C417.02 181.091 416.163 182.503 416.024 182.706L435.004 195.697ZM440.442 181.092L463.028 185.435C465.258 173.836 462.939 163.34 456.326 154.932L438.247 169.15L420.168 183.368C419.346 182.322 418.487 180.767 418.077 178.913C417.698 177.199 417.943 176.295 417.855 176.748L440.442 181.092ZM438.247 169.15L456.326 154.931C450.18 147.116 441.401 142.482 433.166 139.541L425.43 161.201L417.694 182.861C419.641 183.557 420.68 184.122 421.091 184.38C421.514 184.645 420.98 184.399 420.168 183.368L438.247 169.15ZM425.43 161.201L433.165 139.541C422.252 135.644 409.863 135.485 399.883 136.244L401.629 159.178L403.375 182.112C411.074 181.525 415.825 182.194 417.694 182.861L425.43 161.201ZM401.629 159.178L399.883 136.244C389.599 137.027 380.254 138.929 374.644 140.251L379.921 162.638L385.198 185.024C389.508 184.008 396.327 182.648 403.375 182.112L401.629 159.178ZM379.921 162.638L374.644 140.251C375.509 140.048 376.894 140.13 378.17 141.231L363.146 158.646L348.122 176.061C358.925 185.38 372.941 187.914 385.198 185.024L379.921 162.638ZM363.146 158.646L378.17 141.231C362.942 128.094 356.095 120.14 347.932 105.598L327.876 116.858L307.82 128.117C319.166 148.327 329.833 160.283 348.121 176.06L363.146 158.646ZM327.876 116.858L347.939 105.611L347.672 105.135L327.609 116.382L307.547 127.629L307.813 128.104L327.876 116.858ZM327.609 116.382L348.93 107.755L348.725 107.248L327.404 115.875L306.084 124.502L306.289 125.009L327.609 116.382ZM327.404 115.875L348.736 107.275C342.847 92.6668 336.296 79.8076 325.278 70.4599L310.399 87.9982L295.519 105.536C297.541 107.252 300.697 111.14 306.073 124.475L327.404 115.875ZM310.399 87.9982L325.278 70.4597C313.992 60.8846 299.847 56.4713 281.939 54.4525L279.362 77.3078L276.786 100.163C290.309 101.688 294.089 104.324 295.519 105.537L310.399 87.9982ZM279.362 77.3078L281.939 54.4525C282.135 54.4747 282.31 54.5083 282.475 54.5512C282.64 54.5943 282.833 54.6567 283.056 54.7519L274.033 75.9083L265.011 97.0648C268.842 98.6984 272.845 99.7187 276.786 100.163L279.362 77.3078ZM377.158 193.406L388.92 173.641C389.104 173.751 389.275 173.856 389.433 173.956C389.591 174.056 389.735 174.149 389.862 174.233C389.99 174.318 390.1 174.393 390.191 174.455C390.236 174.486 390.276 174.514 390.31 174.538C390.345 174.562 390.374 174.582 390.396 174.598C390.418 174.613 390.435 174.625 390.443 174.631C390.447 174.634 390.45 174.636 390.45 174.636C390.451 174.637 390.45 174.636 390.449 174.636C390.449 174.635 390.447 174.634 390.446 174.633C390.442 174.63 390.436 174.626 390.428 174.621C390.42 174.615 390.409 174.607 390.397 174.598C390.384 174.589 390.368 174.578 390.35 174.566C390.332 174.553 390.311 174.538 390.287 174.522C390.263 174.505 390.236 174.486 390.206 174.465C390.176 174.445 390.142 174.421 390.105 174.396C390.068 174.371 390.026 174.343 389.981 174.313C389.937 174.283 389.887 174.25 389.834 174.214C389.78 174.179 389.722 174.141 389.659 174.1C389.596 174.059 389.527 174.015 389.453 173.968C389.379 173.922 389.299 173.872 389.213 173.819C389.128 173.766 389.035 173.709 388.935 173.65L377.155 193.404L365.376 213.159C365.276 213.1 365.183 213.043 365.097 212.99C365.012 212.937 364.932 212.887 364.858 212.841C364.784 212.794 364.715 212.75 364.652 212.709C364.589 212.668 364.531 212.63 364.478 212.595C364.424 212.56 364.375 212.527 364.33 212.497C364.285 212.466 364.244 212.439 364.207 212.413C364.17 212.388 364.136 212.365 364.106 212.344C364.076 212.323 364.049 212.304 364.025 212.288C364.001 212.271 363.98 212.257 363.962 212.244C363.944 212.231 363.928 212.22 363.915 212.211C363.903 212.202 363.892 212.195 363.884 212.189C363.876 212.184 363.87 212.179 363.867 212.177C363.864 212.175 363.861 212.173 363.862 212.174C363.863 212.174 363.866 212.176 363.87 212.179C363.878 212.185 363.895 212.197 363.917 212.213C363.939 212.228 363.969 212.249 364.003 212.273C364.038 212.297 364.078 212.325 364.123 212.356C364.214 212.418 364.325 212.494 364.452 212.578C364.58 212.663 364.724 212.756 364.882 212.856C365.041 212.956 365.212 213.062 365.397 213.172L377.158 193.406ZM377.155 193.404L364.397 212.542L364.4 212.544L377.158 193.406L389.916 174.269L389.914 174.267L377.155 193.404Z" fill="#F5F0E8" mask="url(#path-2-outside-1_291_137)"/>
<circle cx="295.289" cy="166.197" r="23.5" fill="#737B5F"/>
</svg>
