<svg width="34" height="34" viewBox="0 0 34 34" fill="none" xmlns="http://www.w3.org/2000/svg">
<path d="M0.950469 0.950469C1.55924 0.341884 2.3848 0 3.2456 0C4.10639 0 4.93195 0.341884 5.54072 0.950469L17.0196 12.4293L28.4985 0.950469C29.1107 0.359131 29.9308 0.0319239 30.7819 0.0393203C31.6331 0.0467167 32.4473 0.388126 33.0492 0.990014C33.6511 1.5919 33.9925 2.40611 33.9999 3.25728C34.0073 4.10844 33.6801 4.92847 33.0887 5.54072L21.6099 17.0196L33.0887 28.4985C33.6801 29.1107 34.0073 29.9308 33.9999 30.7819C33.9925 31.6331 33.6511 32.4473 33.0492 33.0492C32.4473 33.6511 31.6331 33.9925 30.7819 33.9999C29.9308 34.0073 29.1107 33.6801 28.4985 33.0887L17.0196 21.6099L5.54072 33.0887C4.92847 33.6801 4.10844 34.0073 3.25728 33.9999C2.40611 33.9925 1.5919 33.6511 0.990014 33.0492C0.388126 32.4473 0.0467167 31.6331 0.0393203 30.7819C0.0319239 29.9308 0.359131 29.1107 0.950469 28.4985L12.4293 17.0196L0.950469 5.54072C0.341884 4.93195 0 4.10639 0 3.2456C0 2.3848 0.341884 1.55924 0.950469 0.950469Z" fill="#626A51"/>
</svg>
