<svg width="25" height="25" viewBox="0 0 25 25" fill="none" xmlns="http://www.w3.org/2000/svg">
<path d="M6.58635 25C5.54181 24.9967 4.54118 24.5794 3.80375 23.8396C3.06632 23.0998 2.65224 22.0979 2.65224 21.0533C2.6508 20.7744 2.68031 20.4962 2.74022 20.2238C2.47394 20.1366 2.21708 20.0229 1.97351 19.8844C1.37427 19.537 0.876667 19.0384 0.530393 18.4385C0.184118 17.8386 0.0012927 17.1583 0.000173523 16.4656C-0.00207177 15.7766 0.180207 15.0996 0.528073 14.5049C0.662386 14.259 0.827075 14.0309 1.01827 13.8261C0.832791 13.6167 0.668586 13.3893 0.528073 13.1474C0.26913 12.6994 0.101101 12.2048 0.03361 11.6918C-0.0338812 11.1787 0.000490765 10.6575 0.134758 10.1577C0.269025 9.65804 0.500549 9.18973 0.816072 8.77963C1.13159 8.36954 1.52492 8.02571 1.97351 7.76784C2.21037 7.61036 2.46856 7.48761 2.74022 7.40334C2.67937 7.12683 2.64986 6.84434 2.65224 6.56122C2.65888 5.52219 3.0763 4.52798 3.81337 3.79562C4.55044 3.06325 5.5473 2.65222 6.58635 2.65224C6.86107 2.65172 7.13503 2.68122 7.40334 2.74023C7.47975 2.46993 7.594 2.21181 7.7427 1.97351C8.00057 1.52492 8.3444 1.1316 8.75449 0.816073C9.16459 0.50055 9.6329 0.269026 10.1326 0.134759C10.6323 0.000492051 11.1536 -0.0338799 11.6666 0.0336113C12.1796 0.101103 12.6743 0.269131 13.1223 0.528075C13.3681 0.662387 13.5962 0.827076 13.801 1.01827C14.0058 0.827076 14.2338 0.662387 14.4797 0.528075C15.0727 0.176123 15.7509 -0.00646453 16.4405 0.000174822C17.1332 0.001294 17.8134 0.18412 18.4133 0.530394C19.0133 0.876669 19.5118 1.37427 19.8593 1.97351C19.9978 2.21708 20.1115 2.47394 20.1986 2.74023C20.471 2.68031 20.7493 2.6508 21.0282 2.65224C21.5475 2.64893 22.0624 2.74816 22.5433 2.94423C23.0242 3.1403 23.4617 3.42936 23.8307 3.79484C24.1997 4.16032 24.4929 4.59504 24.6936 5.07406C24.8942 5.55309 24.9984 6.067 25 6.58635C24.9046 7.92893 24.4723 9.22579 23.7431 10.3571C23.6606 10.5007 23.5506 10.6266 23.4194 10.7277C23.2882 10.8288 23.1383 10.903 22.9784 10.9462C22.8185 10.9894 22.6517 11.0007 22.4874 10.9794C22.3232 10.9581 22.1647 10.9047 22.0211 10.8221C21.7311 10.6554 21.5192 10.3804 21.432 10.0575C21.3888 9.89756 21.3775 9.73072 21.3988 9.56647C21.4201 9.40221 21.4736 9.24376 21.5561 9.10016C22.0666 8.34957 22.3899 7.48757 22.4988 6.58635C22.4954 6.20851 22.343 5.84728 22.0747 5.58128C21.8063 5.31527 21.4437 5.16604 21.0659 5.16605C20.8516 5.16796 20.6406 5.21877 20.4489 5.31461C20.2572 5.41046 20.0899 5.5488 19.9598 5.71909C19.7768 5.97074 19.507 6.14556 19.2025 6.20972C18.898 6.27388 18.5806 6.22282 18.3116 6.06643C18.0426 5.91003 17.8411 5.65942 17.7463 5.36307C17.6514 5.06673 17.6698 4.74573 17.7979 4.46218C17.8726 4.28737 17.9111 4.09924 17.9111 3.90915C17.9125 3.66582 17.8473 3.42674 17.7225 3.21785C17.5264 2.89791 17.2155 2.66503 16.8533 2.56688C16.4911 2.46874 16.1051 2.51277 15.7743 2.68995C15.5871 2.7995 15.4274 2.95048 15.3076 3.13132C15.1877 3.31216 15.1109 3.51804 15.083 3.73318C15.0403 4.03519 14.8893 4.31136 14.658 4.51024C14.4268 4.70912 14.1311 4.81712 13.8261 4.81412C13.5211 4.81712 13.2255 4.70912 12.9942 4.51024C12.7629 4.31136 12.6119 4.03519 12.5692 3.73318C12.5413 3.51804 12.4645 3.31216 12.3447 3.13132C12.2248 2.95048 12.0652 2.7995 11.8779 2.68995C11.5444 2.51007 11.1543 2.46586 10.789 2.56656C10.4237 2.66725 10.1114 2.90507 9.91715 3.23042C9.79235 3.43931 9.72715 3.67839 9.72861 3.92172C9.72859 4.11181 9.76707 4.29994 9.84173 4.47475C9.96988 4.7583 9.9883 5.0793 9.89342 5.37564C9.79854 5.67199 9.59712 5.9226 9.32812 6.079C9.05912 6.23539 8.74167 6.28645 8.43719 6.22229C8.13272 6.15813 7.86287 5.98331 7.67986 5.73166C7.54846 5.55969 7.37917 5.42033 7.18516 5.32442C6.99115 5.2285 6.77764 5.17861 6.56121 5.17862C6.19208 5.18828 5.84092 5.34008 5.58098 5.60236C5.32105 5.86464 5.1724 6.21714 5.16605 6.58635C5.16604 6.80278 5.21593 7.01629 5.31185 7.2103C5.40776 7.40431 5.54712 7.5736 5.71909 7.705C5.97074 7.88801 6.14556 8.15786 6.20972 8.46233C6.27388 8.76681 6.22282 9.08426 6.06643 9.35326C5.91003 9.62226 5.65942 9.82368 5.36307 9.91856C5.06673 10.0134 4.74573 9.99502 4.46218 9.86687C4.26217 9.77699 4.04335 9.7369 3.82446 9.75003C3.60557 9.76316 3.39311 9.82913 3.20528 9.94229C2.94796 10.0898 2.74328 10.3143 2.61999 10.584C2.49669 10.8538 2.46095 11.1554 2.51779 11.4466C2.57463 11.7377 2.72119 12.0037 2.93691 12.2073C3.15263 12.4109 3.42668 12.5419 3.72061 12.5818C4.05396 12.5818 4.37366 12.7142 4.60938 12.9499C4.84509 13.1856 4.97752 13.5053 4.97752 13.8387C4.97752 14.172 4.84509 14.4917 4.60938 14.7275C4.37366 14.9632 4.05396 15.0956 3.72061 15.0956C3.50547 15.1235 3.29959 15.2003 3.11875 15.3201C2.93791 15.44 2.78693 15.5996 2.67738 15.7869C2.55385 16.0009 2.48882 16.2437 2.48884 16.4908C2.48781 16.7246 2.54451 16.955 2.65393 17.1617C2.76335 17.3683 2.92209 17.5448 3.11607 17.6753C3.31005 17.8059 3.53326 17.8865 3.76589 17.9101C3.99853 17.9337 4.23338 17.8995 4.44961 17.8105C4.73316 17.6824 5.05416 17.6639 5.3505 17.7588C5.64685 17.8537 5.89746 18.0551 6.05386 18.3241C6.21025 18.5931 6.26131 18.9106 6.19715 19.215C6.13299 19.5195 5.95817 19.7894 5.70652 19.9724C5.53623 20.1025 5.39788 20.2698 5.30204 20.4614C5.2062 20.6531 5.15539 20.8642 5.15348 21.0785C5.16007 21.4541 5.31394 21.8121 5.58194 22.0754C5.84995 22.3387 6.21065 22.4862 6.58635 22.4862C8.78593 22.4862 14.5803 17.9739 18.7406 13.0091C18.9556 12.7541 19.2631 12.595 19.5955 12.5667C19.9279 12.5384 20.2578 12.6433 20.5129 12.8583C20.7679 13.0733 20.927 13.3808 20.9553 13.7132C20.9836 14.0455 20.8787 14.3755 20.6637 14.6305C17.2952 18.6401 10.4953 25 6.58635 25Z" fill="#737B5F"/>
</svg>
