<svg width="20" height="20" viewBox="0 0 20 20" fill="none" xmlns="http://www.w3.org/2000/svg">
<path d="M12 18.2C12 19.1941 11.1941 20 10.2 20C9.20589 20 8.4 19.1941 8.4 18.2L8.4 1.8C8.4 0.805887 9.20589 -1.22135e-07 10.2 -7.86805e-08C11.1941 -3.52265e-08 12 0.805887 12 1.8L12 18.2Z" fill="#A18888"/>
<path d="M1.8 11.5996C0.805887 11.5996 7.04529e-08 10.7937 1.57361e-07 9.79961C2.44269e-07 8.8055 0.805888 7.99961 1.8 7.99961L18.2 7.99961C19.1941 7.99961 20 8.8055 20 9.79961C20 10.7937 19.1941 11.5996 18.2 11.5996L1.8 11.5996Z" fill="#A18888"/>
</svg>
