<svg width="47" height="45" viewBox="0 0 47 45" fill="none" xmlns="http://www.w3.org/2000/svg">
<path d="M19.2778 2.76387C20.4752 -0.921371 25.6888 -0.921375 26.8863 2.76387L29.5929 11.0942C30.1284 12.7423 31.6643 13.8581 33.3972 13.8581H42.1562C46.0311 13.8581 47.6422 18.8166 44.5073 21.0942L37.4211 26.2426C36.0192 27.2612 35.4325 29.0666 35.968 30.7147L38.6747 39.045C39.8721 42.7303 35.6542 45.7948 32.5193 43.5172L25.4332 38.3687C24.0312 37.3502 22.1328 37.3502 20.7309 38.3687L13.6447 43.5172C10.5099 45.7948 6.29194 42.7303 7.48934 39.045L10.196 30.7147C10.7315 29.0666 10.1449 27.2612 8.74294 26.2426L1.65676 21.0942C-1.47809 18.8166 0.133007 13.8581 4.0079 13.8581H12.7669C14.4998 13.8581 16.0356 12.7423 16.5711 11.0942L19.2778 2.76387Z" fill="#E8ECDF"/>
</svg>
