<svg width="24" height="21" viewBox="0 0 24 21" fill="none" xmlns="http://www.w3.org/2000/svg">
<path fill-rule="evenodd" clip-rule="evenodd" d="M22.9717 2.50468C23.3029 0.890769 21.717 -0.450423 20.1795 0.143344L1.3328 7.42161C-0.384187 8.08468 -0.460692 10.4845 1.21057 11.2555L5.31485 13.1489L7.26731 19.9793C7.36873 20.3341 7.6504 20.6088 8.00775 20.7014C8.3651 20.7938 8.74478 20.6905 9.00581 20.4296L12.0134 17.4234L16.2264 20.5817C17.4493 21.4984 19.2107 20.8307 19.5179 19.3339L22.9717 2.50468ZM2.08379 9.36441L20.9305 2.08616L17.4766 18.9155L12.5408 15.2152C12.126 14.9043 11.5456 14.9455 11.1789 15.312L9.89076 16.5995L10.2778 14.4719L17.8617 6.89156C18.2309 6.52265 18.2698 5.93768 17.953 5.52308C17.6362 5.10846 17.0614 4.99217 16.6081 5.25101L6.13453 11.2331L2.08379 9.36441ZM7.41157 12.9025L8.04334 15.1128L8.2859 13.7793C8.32381 13.5709 8.4244 13.379 8.57426 13.2292L10.8871 10.9175L7.41157 12.9025Z" fill="#737B5F"/>
</svg>
