<svg width="26" height="16" viewBox="0 0 26 16" fill="none" xmlns="http://www.w3.org/2000/svg">
<path fill-rule="evenodd" clip-rule="evenodd" d="M24.4433 1.08342C24.6172 0.458903 24.4433 0 23.6157 0H20.8788C20.1829 0 19.862 0.396423 19.6881 0.833554C19.6881 0.833554 18.2962 4.48694 16.3245 6.86C15.6866 7.54697 15.3966 7.7656 15.0487 7.7656C14.8747 7.7656 14.6137 7.54697 14.6137 6.92251V1.08342C14.6137 0.334 14.421 0 13.841 0H9.5401C9.10522 0 8.84368 0.347817 8.84368 0.677463C8.84368 1.3879 9.82948 1.55174 9.93109 3.55018V7.89051C9.93109 8.84206 9.77151 9.01463 9.42355 9.01463C8.49573 9.01463 6.23878 5.34494 4.90021 1.14584C4.63788 0.32968 4.37477 0 3.67529 0H0.938379C0.156405 0 0 0.396423 0 0.833554C0 1.61422 0.927875 5.48616 4.32034 10.6071C6.58196 14.1042 9.76843 16 12.668 16C14.4077 16 14.623 15.579 14.623 14.8537V12.2105C14.623 11.3685 14.7878 11.2003 15.3387 11.2003C15.7446 11.2003 16.4405 11.419 18.0642 13.1051C19.92 15.1035 20.2259 16 21.2697 16H24.0067C24.7886 16 25.1796 15.579 24.954 14.748C24.7072 13.9199 23.8212 12.7184 22.6456 11.2941C22.0077 10.4822 21.0508 9.60789 20.7608 9.17063C20.3549 8.60869 20.4709 8.35886 20.7608 7.85931C20.7608 7.85931 24.0954 2.80077 24.4433 1.08342Z" fill="#737B5F"/>
</svg>
