<svg width="26" height="26" viewBox="0 0 26 26" fill="none" xmlns="http://www.w3.org/2000/svg">
<path d="M5.73085 8.00199C5.86144 6.96991 7.20368 5.5672 8.26891 5.72285L8.26721 5.72115C9.30389 5.91801 10.1245 7.70105 10.5873 8.5028C10.9151 9.08451 10.7022 9.67389 10.3964 9.92259C9.98385 10.2549 9.33872 10.7134 9.47407 11.1737C9.71472 11.9921 12.5718 14.8472 13.977 15.6588C14.5089 15.966 14.8946 15.1557 15.2239 14.7406C15.4632 14.4213 16.0535 14.2305 16.6343 14.5457C17.5017 15.0504 18.3188 15.6371 19.0744 16.2975C19.4518 16.6127 19.5403 17.0786 19.2789 17.5709C18.8183 18.438 17.4862 19.5815 16.5193 19.3491C14.8304 18.9434 8.00049 16.2975 5.80665 8.63226C5.68327 8.26963 5.71433 8.13254 5.73085 8.00199Z" fill="#737B5F"/>
<path fill-rule="evenodd" clip-rule="evenodd" d="M12.571 25.1246C11.1727 25.1246 10.399 24.9747 9.14257 24.5536L6.73628 25.7559C5.21654 26.5153 3.42846 25.4109 3.42846 23.7129V21.1275C0.967455 18.8343 0 16.1902 0 12.5623C0 5.62434 5.62824 0 12.571 0C19.5138 0 25.1421 5.62434 25.1421 12.5623C25.1421 19.5002 19.5138 25.1246 12.571 25.1246ZM5.7141 20.1343L4.98721 19.457C3.07518 17.6754 2.28564 15.6836 2.28564 12.5623C2.28564 6.88579 6.89057 2.28406 12.571 2.28406C18.2515 2.28406 22.8564 6.88579 22.8564 12.5623C22.8564 18.2389 18.2515 22.8406 12.571 22.8406C11.4446 22.8406 10.9162 22.7389 9.86934 22.3881L8.96939 22.0865L5.7141 23.7129V20.1343Z" fill="#737B5F"/>
</svg>
