<svg width="55" height="61" viewBox="0 0 55 61" fill="none" xmlns="http://www.w3.org/2000/svg">
<mask id="path-1-inside-1_522_1050" fill="white">
<path d="M54.9776 25.5109C54.9409 25.2195 54.8601 24.9331 54.7446 24.6635C54.5689 24.2607 54.3143 23.9028 54.0129 23.5889C53.7107 23.2734 53.362 22.9971 52.9658 22.7391C52.7435 22.595 52.5055 22.4577 52.2507 22.3228L52.2449 22.3195C51.6331 21.9965 51.0337 21.7118 50.4477 21.4604C50.8081 20.687 51.0487 19.9005 51.1736 19.1164C51.3176 18.214 51.3118 17.3166 51.1918 16.4477C51.0113 15.1418 50.5801 13.8963 50.0107 12.7111C49.4413 11.525 48.7321 10.3961 47.9689 9.31405C47.3379 8.41918 46.5588 7.70833 45.7205 7.16306C44.5443 6.40228 43.2574 5.95948 42.0205 5.75466C41.1922 5.61891 40.3881 5.58729 39.6347 5.65053C39.346 5.19442 39.023 4.74568 38.6501 4.31453C38.0332 3.59951 37.2933 2.93359 36.4201 2.36586C36.0988 2.15688 35.7591 1.96217 35.4011 1.78231C34.3348 1.2462 33.2559 0.955676 32.2188 0.880787C31.4397 0.823252 30.6856 0.884947 29.9754 1.03901C28.9075 1.27033 27.9387 1.70493 27.0896 2.24675C26.7491 2.46238 26.4295 2.69787 26.1273 2.94429C25.6602 2.41067 25.1509 1.89869 24.5964 1.42427H24.5973C24.3026 1.17297 24.0112 0.951397 23.7183 0.760012C23.2722 0.471985 22.8185 0.250645 22.3323 0.119054C21.9702 0.0207465 21.5873 -0.0207399 21.2061 0.00992911C20.9207 0.0315638 20.6368 0.0964681 20.3745 0.197985C19.9766 0.348715 19.6295 0.58004 19.339 0.8456C19.0476 1.11354 18.8071 1.415 18.5965 1.73797C18.1437 2.44051 17.8207 3.24872 17.5352 4.16273C17.2522 5.0784 17.0166 6.09892 16.7961 7.2093C16.4473 8.97479 16.0461 10.2525 15.5966 11.3105C15.1454 12.3678 14.6444 13.2159 14.0467 14.1366C13.6505 14.7483 13.211 15.3909 12.7341 16.1234C10.8786 18.9836 3.28374 30.6831 3.28374 30.6831C0.455173 35.0407 -0.49628 40.0909 0.237875 44.8515C0.970365 49.6137 3.38609 54.1054 7.27998 57.3602L7.27416 57.356C7.58964 57.6224 7.91844 57.8812 8.25806 58.1293L8.28885 58.1526L8.30216 58.1609C8.60766 58.3857 8.91982 58.603 9.23947 58.8118C9.25611 58.8226 9.27442 58.8351 9.29522 58.8501C9.41754 58.9283 9.61641 59.0415 9.89291 59.143C10.1151 59.2238 10.3898 59.2979 10.7061 59.3412C15.1128 61.1525 19.9159 61.3148 24.2968 59.9954C28.7443 58.6594 32.769 55.7902 35.4943 51.5907C35.4943 51.5907 41.7382 41.9706 43.5945 39.1113C44.0707 38.3778 44.4777 37.7153 44.8756 37.1035C45.4733 36.1837 46.0443 35.3796 46.8267 34.538C47.6101 33.6964 48.6131 32.81 50.0839 31.772C51.0071 31.1194 51.8396 30.4951 52.5553 29.8749C53.2695 29.2524 53.873 28.6387 54.3267 27.9437C54.5823 27.55 54.7912 27.1221 54.9085 26.6435C54.995 26.2859 55.025 25.898 54.9776 25.5109ZM41.5475 8.60807C42.4381 8.75547 43.3589 9.07845 44.1446 9.59043C44.7081 9.95668 45.2042 10.4136 45.6054 10.9814C46.2289 11.8646 46.7907 12.7553 47.2403 13.6342C47.5766 14.2935 47.8503 14.9478 48.0443 15.5854C48.3365 16.5443 48.4505 17.4624 48.3565 18.3606C48.2798 19.0673 48.0768 19.7716 47.6956 20.5033C46.2605 20.122 44.9287 19.9572 43.7142 19.9656C43.715 19.3563 43.6651 18.7885 43.5776 18.2633C43.3263 16.7475 42.7594 15.5922 42.3323 14.7547C42.1183 14.3368 41.9426 13.9948 41.8454 13.7533C41.798 13.6327 41.7672 13.5377 41.7539 13.4761C41.7389 13.4129 41.7397 13.3829 41.7397 13.3746C41.7514 13.04 41.7447 12.6271 41.7088 12.1434C41.6531 11.4209 41.5316 10.5419 41.291 9.58389C41.2061 9.24416 41.1053 8.89467 40.988 8.53829C41.1721 8.55482 41.3586 8.57645 41.5475 8.60807ZM28.4471 4.81569C29.2304 4.27803 30.116 3.9018 31.0484 3.78852C31.5161 3.73194 31.9998 3.73859 32.5051 3.82763C33.0112 3.91678 33.5415 4.08487 34.1034 4.36707L34.1042 4.36778C34.3655 4.49925 34.612 4.64083 34.8442 4.79144C35.4768 5.20262 36.0087 5.67966 36.4599 6.20578C36.9136 6.72858 37.2849 7.29953 37.5911 7.88889V7.89056C38.1405 8.94686 38.4685 10.0673 38.65 11.0421C38.7415 11.5299 38.7948 11.9794 38.8239 12.3623C38.853 12.7443 38.8564 13.0632 38.8497 13.2721C38.8339 13.6775 38.903 14.0462 38.9995 14.3718C39.0853 14.6581 39.191 14.9145 39.3041 15.1609C39.5015 15.5879 39.7162 15.9809 39.9185 16.3912C40.2223 17.0064 40.4979 17.6507 40.6651 18.4298C40.7834 18.9834 40.8466 19.6093 40.8108 20.3493C40.4122 20.4592 40.0343 20.589 39.6805 20.7364C39.3058 20.8936 38.9604 21.0742 38.6374 21.2682C37.4072 21.0692 36.1278 21.0467 34.8492 21.2041C34.1808 19.5626 33.3233 17.9627 32.4534 16.5135C31.5312 14.9802 30.5947 13.6167 29.8546 12.5838C29.9012 12.1285 29.9055 11.6606 29.8663 11.1787C29.7781 10.089 29.4975 8.93117 29.0421 7.75421C28.7258 6.93174 28.3205 6.10355 27.8335 5.29189C28.0284 5.12357 28.2324 4.96298 28.4471 4.81569ZM12.8928 56.0435C12.4591 56.2642 12.1054 56.3799 11.8255 56.4381C11.545 56.4963 11.3386 56.4996 11.1862 56.4872H11.1837C11.0373 56.4747 10.9423 56.4464 10.8924 56.4281C10.8732 56.4223 10.8624 56.4164 10.8549 56.4131L10.8499 56.4089C10.5503 56.2159 10.2606 56.0136 9.98183 55.8054L9.94343 55.7771L9.93939 55.7746C9.66468 55.5733 9.39828 55.3643 9.14104 55.147L9.13439 55.1411C5.79741 52.3502 3.72713 48.5036 3.09782 44.4132C2.46934 40.3211 3.27934 36.0043 5.70992 32.2584C5.70992 32.2584 13.3049 20.5582 15.1603 17.6988C15.613 17.0029 16.0483 16.3661 16.473 15.7119C17.1089 14.7321 17.7215 13.7066 18.2576 12.4422C18.7954 11.1786 19.2549 9.68945 19.6337 7.77157C19.841 6.71943 20.0616 5.78379 20.2979 5.01968C20.5327 4.25462 20.794 3.66192 21.0229 3.31315C21.1461 3.12165 21.256 3.00598 21.3243 2.95273C21.3758 2.91196 21.4008 2.9028 21.4125 2.89864L21.4432 2.89282C21.4675 2.89115 21.5248 2.89115 21.6431 2.93109C21.7589 2.96937 21.9294 3.04759 22.1426 3.18667C22.309 3.29413 22.5022 3.43892 22.7152 3.62198H22.716C23.5094 4.30038 24.2052 5.08625 24.7946 5.92025L24.7954 5.92275C25.6762 7.16306 26.3088 8.51321 26.6601 9.73022C26.8374 10.3371 26.9439 10.9106 26.983 11.4108C27.0238 11.9111 26.9964 12.3373 26.9281 12.642L26.7883 13.2771L27.1696 13.804C27.9228 14.8403 28.9667 16.3279 29.9747 18.0043C30.9819 19.6783 31.95 21.5454 32.551 23.2943C32.9465 24.4421 33.1795 25.535 33.1978 26.4582C33.207 26.9194 33.1653 27.3372 33.0763 27.7068C32.9856 28.0764 32.8499 28.3977 32.661 28.689C32.1115 29.5348 31.3075 30.7651 30.3461 32.2334L31.5555 33.0258L30.3451 32.2351C27.9736 35.8593 25.7552 39.2281 23.8441 42.1732C22.5014 44.2408 21.3119 46.098 20.3247 47.6945C20.1042 48.0516 19.886 48.3954 19.6721 48.7259C18.4693 50.5796 17.3754 52.0081 16.4033 53.0985C14.9431 54.7358 13.7585 55.6049 12.8928 56.0435ZM52.0858 26.002C52.0608 26.0828 52.0042 26.2094 51.9001 26.3699C51.6844 26.7054 51.2575 27.1733 50.6589 27.691C50.0614 28.2104 49.2955 28.7873 48.4147 29.4092C46.8173 30.5362 45.6446 31.561 44.7089 32.5672C43.7724 33.5719 43.084 34.5475 42.4489 35.5281C42.0236 36.184 41.6198 36.8416 41.1687 37.5367C39.3125 40.396 33.0678 50.0153 33.0678 50.0153C30.7245 53.6245 27.2843 56.0752 23.4626 57.2256C20.9404 57.9848 18.2575 58.1704 15.6254 57.7441C16.0624 57.427 16.5169 57.0574 16.989 56.6262C18.4982 55.2445 20.1938 53.2334 22.0982 50.3C22.3239 49.952 22.5528 49.59 22.7841 49.2162C23.753 47.6504 24.9333 45.8067 26.2695 43.7481C28.1722 40.8165 30.3906 37.4493 32.7646 33.8192C33.7277 32.3492 34.5334 31.1164 35.087 30.264C35.4666 29.6796 35.728 29.0428 35.8861 28.3902C36.1234 27.4097 36.1383 26.3982 36.0151 25.3877C35.9602 24.9315 35.8736 24.4754 35.7663 24.0193C36.7535 23.951 37.7315 24.0159 38.6471 24.2098L39.2831 24.3447L39.8059 23.9593C40.0706 23.762 40.4028 23.5705 40.8006 23.4033C41.2452 23.2167 41.7687 23.062 42.3681 22.967H42.3739C43.7898 22.739 45.6403 22.8314 47.8911 23.5797L47.8628 23.5697L47.8903 23.5788C48.8251 23.8902 49.8281 24.3156 50.8961 24.8782H50.8968C51.0849 24.9781 51.2489 25.0729 51.3904 25.1654C51.6859 25.3569 51.8749 25.5283 51.9764 25.6474C52.0531 25.7373 52.0822 25.7964 52.0946 25.8263C52.1037 25.8506 52.1045 25.8596 52.1062 25.8721C52.1082 25.8889 52.11 25.9205 52.0858 26.002Z"/>
</mask>
<path d="M54.9776 25.5109C54.9409 25.2195 54.8601 24.9331 54.7446 24.6635C54.5689 24.2607 54.3143 23.9028 54.0129 23.5889C53.7107 23.2734 53.362 22.9971 52.9658 22.7391C52.7435 22.595 52.5055 22.4577 52.2507 22.3228L52.2449 22.3195C51.6331 21.9965 51.0337 21.7118 50.4477 21.4604C50.8081 20.687 51.0487 19.9005 51.1736 19.1164C51.3176 18.214 51.3118 17.3166 51.1918 16.4477C51.0113 15.1418 50.5801 13.8963 50.0107 12.7111C49.4413 11.525 48.7321 10.3961 47.9689 9.31405C47.3379 8.41918 46.5588 7.70833 45.7205 7.16306C44.5443 6.40228 43.2574 5.95948 42.0205 5.75466C41.1922 5.61891 40.3881 5.58729 39.6347 5.65053C39.346 5.19442 39.023 4.74568 38.6501 4.31453C38.0332 3.59951 37.2933 2.93359 36.4201 2.36586C36.0988 2.15688 35.7591 1.96217 35.4011 1.78231C34.3348 1.2462 33.2559 0.955676 32.2188 0.880787C31.4397 0.823252 30.6856 0.884947 29.9754 1.03901C28.9075 1.27033 27.9387 1.70493 27.0896 2.24675C26.7491 2.46238 26.4295 2.69787 26.1273 2.94429C25.6602 2.41067 25.1509 1.89869 24.5964 1.42427H24.5973C24.3026 1.17297 24.0112 0.951397 23.7183 0.760012C23.2722 0.471985 22.8185 0.250645 22.3323 0.119054C21.9702 0.0207465 21.5873 -0.0207399 21.2061 0.00992911C20.9207 0.0315638 20.6368 0.0964681 20.3745 0.197985C19.9766 0.348715 19.6295 0.58004 19.339 0.8456C19.0476 1.11354 18.8071 1.415 18.5965 1.73797C18.1437 2.44051 17.8207 3.24872 17.5352 4.16273C17.2522 5.0784 17.0166 6.09892 16.7961 7.2093C16.4473 8.97479 16.0461 10.2525 15.5966 11.3105C15.1454 12.3678 14.6444 13.2159 14.0467 14.1366C13.6505 14.7483 13.211 15.3909 12.7341 16.1234C10.8786 18.9836 3.28374 30.6831 3.28374 30.6831C0.455173 35.0407 -0.49628 40.0909 0.237875 44.8515C0.970365 49.6137 3.38609 54.1054 7.27998 57.3602L7.27416 57.356C7.58964 57.6224 7.91844 57.8812 8.25806 58.1293L8.28885 58.1526L8.30216 58.1609C8.60766 58.3857 8.91982 58.603 9.23947 58.8118C9.25611 58.8226 9.27442 58.8351 9.29522 58.8501C9.41754 58.9283 9.61641 59.0415 9.89291 59.143C10.1151 59.2238 10.3898 59.2979 10.7061 59.3412C15.1128 61.1525 19.9159 61.3148 24.2968 59.9954C28.7443 58.6594 32.769 55.7902 35.4943 51.5907C35.4943 51.5907 41.7382 41.9706 43.5945 39.1113C44.0707 38.3778 44.4777 37.7153 44.8756 37.1035C45.4733 36.1837 46.0443 35.3796 46.8267 34.538C47.6101 33.6964 48.6131 32.81 50.0839 31.772C51.0071 31.1194 51.8396 30.4951 52.5553 29.8749C53.2695 29.2524 53.873 28.6387 54.3267 27.9437C54.5823 27.55 54.7912 27.1221 54.9085 26.6435C54.995 26.2859 55.025 25.898 54.9776 25.5109ZM41.5475 8.60807C42.4381 8.75547 43.3589 9.07845 44.1446 9.59043C44.7081 9.95668 45.2042 10.4136 45.6054 10.9814C46.2289 11.8646 46.7907 12.7553 47.2403 13.6342C47.5766 14.2935 47.8503 14.9478 48.0443 15.5854C48.3365 16.5443 48.4505 17.4624 48.3565 18.3606C48.2798 19.0673 48.0768 19.7716 47.6956 20.5033C46.2605 20.122 44.9287 19.9572 43.7142 19.9656C43.715 19.3563 43.6651 18.7885 43.5776 18.2633C43.3263 16.7475 42.7594 15.5922 42.3323 14.7547C42.1183 14.3368 41.9426 13.9948 41.8454 13.7533C41.798 13.6327 41.7672 13.5377 41.7539 13.4761C41.7389 13.4129 41.7397 13.3829 41.7397 13.3746C41.7514 13.04 41.7447 12.6271 41.7088 12.1434C41.6531 11.4209 41.5316 10.5419 41.291 9.58389C41.2061 9.24416 41.1053 8.89467 40.988 8.53829C41.1721 8.55482 41.3586 8.57645 41.5475 8.60807ZM28.4471 4.81569C29.2304 4.27803 30.116 3.9018 31.0484 3.78852C31.5161 3.73194 31.9998 3.73859 32.5051 3.82763C33.0112 3.91678 33.5415 4.08487 34.1034 4.36707L34.1042 4.36778C34.3655 4.49925 34.612 4.64083 34.8442 4.79144C35.4768 5.20262 36.0087 5.67966 36.4599 6.20578C36.9136 6.72858 37.2849 7.29953 37.5911 7.88889V7.89056C38.1405 8.94686 38.4685 10.0673 38.65 11.0421C38.7415 11.5299 38.7948 11.9794 38.8239 12.3623C38.853 12.7443 38.8564 13.0632 38.8497 13.2721C38.8339 13.6775 38.903 14.0462 38.9995 14.3718C39.0853 14.6581 39.191 14.9145 39.3041 15.1609C39.5015 15.5879 39.7162 15.9809 39.9185 16.3912C40.2223 17.0064 40.4979 17.6507 40.6651 18.4298C40.7834 18.9834 40.8466 19.6093 40.8108 20.3493C40.4122 20.4592 40.0343 20.589 39.6805 20.7364C39.3058 20.8936 38.9604 21.0742 38.6374 21.2682C37.4072 21.0692 36.1278 21.0467 34.8492 21.2041C34.1808 19.5626 33.3233 17.9627 32.4534 16.5135C31.5312 14.9802 30.5947 13.6167 29.8546 12.5838C29.9012 12.1285 29.9055 11.6606 29.8663 11.1787C29.7781 10.089 29.4975 8.93117 29.0421 7.75421C28.7258 6.93174 28.3205 6.10355 27.8335 5.29189C28.0284 5.12357 28.2324 4.96298 28.4471 4.81569ZM12.8928 56.0435C12.4591 56.2642 12.1054 56.3799 11.8255 56.4381C11.545 56.4963 11.3386 56.4996 11.1862 56.4872H11.1837C11.0373 56.4747 10.9423 56.4464 10.8924 56.4281C10.8732 56.4223 10.8624 56.4164 10.8549 56.4131L10.8499 56.4089C10.5503 56.2159 10.2606 56.0136 9.98183 55.8054L9.94343 55.7771L9.93939 55.7746C9.66468 55.5733 9.39828 55.3643 9.14104 55.147L9.13439 55.1411C5.79741 52.3502 3.72713 48.5036 3.09782 44.4132C2.46934 40.3211 3.27934 36.0043 5.70992 32.2584C5.70992 32.2584 13.3049 20.5582 15.1603 17.6988C15.613 17.0029 16.0483 16.3661 16.473 15.7119C17.1089 14.7321 17.7215 13.7066 18.2576 12.4422C18.7954 11.1786 19.2549 9.68945 19.6337 7.77157C19.841 6.71943 20.0616 5.78379 20.2979 5.01968C20.5327 4.25462 20.794 3.66192 21.0229 3.31315C21.1461 3.12165 21.256 3.00598 21.3243 2.95273C21.3758 2.91196 21.4008 2.9028 21.4125 2.89864L21.4432 2.89282C21.4675 2.89115 21.5248 2.89115 21.6431 2.93109C21.7589 2.96937 21.9294 3.04759 22.1426 3.18667C22.309 3.29413 22.5022 3.43892 22.7152 3.62198H22.716C23.5094 4.30038 24.2052 5.08625 24.7946 5.92025L24.7954 5.92275C25.6762 7.16306 26.3088 8.51321 26.6601 9.73022C26.8374 10.3371 26.9439 10.9106 26.983 11.4108C27.0238 11.9111 26.9964 12.3373 26.9281 12.642L26.7883 13.2771L27.1696 13.804C27.9228 14.8403 28.9667 16.3279 29.9747 18.0043C30.9819 19.6783 31.95 21.5454 32.551 23.2943C32.9465 24.4421 33.1795 25.535 33.1978 26.4582C33.207 26.9194 33.1653 27.3372 33.0763 27.7068C32.9856 28.0764 32.8499 28.3977 32.661 28.689C32.1115 29.5348 31.3075 30.7651 30.3461 32.2334L31.5555 33.0258L30.3451 32.2351C27.9736 35.8593 25.7552 39.2281 23.8441 42.1732C22.5014 44.2408 21.3119 46.098 20.3247 47.6945C20.1042 48.0516 19.886 48.3954 19.6721 48.7259C18.4693 50.5796 17.3754 52.0081 16.4033 53.0985C14.9431 54.7358 13.7585 55.6049 12.8928 56.0435ZM52.0858 26.002C52.0608 26.0828 52.0042 26.2094 51.9001 26.3699C51.6844 26.7054 51.2575 27.1733 50.6589 27.691C50.0614 28.2104 49.2955 28.7873 48.4147 29.4092C46.8173 30.5362 45.6446 31.561 44.7089 32.5672C43.7724 33.5719 43.084 34.5475 42.4489 35.5281C42.0236 36.184 41.6198 36.8416 41.1687 37.5367C39.3125 40.396 33.0678 50.0153 33.0678 50.0153C30.7245 53.6245 27.2843 56.0752 23.4626 57.2256C20.9404 57.9848 18.2575 58.1704 15.6254 57.7441C16.0624 57.427 16.5169 57.0574 16.989 56.6262C18.4982 55.2445 20.1938 53.2334 22.0982 50.3C22.3239 49.952 22.5528 49.59 22.7841 49.2162C23.753 47.6504 24.9333 45.8067 26.2695 43.7481C28.1722 40.8165 30.3906 37.4493 32.7646 33.8192C33.7277 32.3492 34.5334 31.1164 35.087 30.264C35.4666 29.6796 35.728 29.0428 35.8861 28.3902C36.1234 27.4097 36.1383 26.3982 36.0151 25.3877C35.9602 24.9315 35.8736 24.4754 35.7663 24.0193C36.7535 23.951 37.7315 24.0159 38.6471 24.2098L39.2831 24.3447L39.8059 23.9593C40.0706 23.762 40.4028 23.5705 40.8006 23.4033C41.2452 23.2167 41.7687 23.062 42.3681 22.967H42.3739C43.7898 22.739 45.6403 22.8314 47.8911 23.5797L47.8628 23.5697L47.8903 23.5788C48.8251 23.8902 49.8281 24.3156 50.8961 24.8782H50.8968C51.0849 24.9781 51.2489 25.0729 51.3904 25.1654C51.6859 25.3569 51.8749 25.5283 51.9764 25.6474C52.0531 25.7373 52.0822 25.7964 52.0946 25.8263C52.1037 25.8506 52.1045 25.8596 52.1062 25.8721C52.1082 25.8889 52.11 25.9205 52.0858 26.002Z" fill="#737B5F" stroke="#737B5F" stroke-width="3.125" mask="url(#path-1-inside-1_522_1050)"/>
<path d="M25.2285 27.2694C24.1687 28.9025 21.6131 32.842 19.1514 36.6346C17.6924 38.8823 16.2669 41.0794 15.2061 42.7137C14.6757 43.5308 14.2363 44.2072 13.9297 44.6796C13.9108 44.7087 13.8919 44.7369 13.874 44.7645L13.4512 44.4901C13.4691 44.4626 13.4879 44.4343 13.5068 44.4052C13.8134 43.9328 14.2529 43.2564 14.7832 42.4393C15.844 40.805 17.2696 38.6088 18.7285 36.3612C21.1902 32.5688 23.7463 28.6292 24.8066 26.996L25.2285 27.2694Z" fill="#737B5F" stroke="#737B5F" stroke-width="1.5625"/>
<path d="M36.8857 36.0675C36.0678 37.3282 34.3375 39.9967 32.667 42.5704C31.6248 44.176 30.6064 45.7448 29.8486 46.9122C29.5149 47.4264 29.231 47.8623 29.0186 48.1896L28.5957 47.9152C28.8081 47.5879 29.092 47.152 29.4258 46.6378C30.1835 45.4705 31.202 43.9015 32.2441 42.296C33.9144 39.7228 35.6456 37.0541 36.4639 35.7931L36.8857 36.0675Z" fill="#737B5F" stroke="#737B5F" stroke-width="1.5625"/>
<path d="M21.4941 17.5142C21.3957 17.9427 21.2505 18.4208 21.0605 18.9321C20.7244 19.8301 20.2631 20.8067 19.71 21.7202L19.4678 22.1069C18.8208 23.1035 16.4024 26.8294 14.1455 30.3062C13.017 32.0446 11.928 33.7208 11.1221 34.9624C10.7541 35.5293 10.4451 36.0057 10.2178 36.356L9.79492 36.0815C10.0222 35.7313 10.3323 35.2557 10.7002 34.689C11.5062 33.4473 12.5941 31.7703 13.7227 30.0317C15.9797 26.5547 18.3986 22.829 19.0459 21.8325L19.0469 21.8315C19.4608 21.1921 19.838 20.4902 20.1494 19.8071L20.1484 19.8062C20.4619 19.1232 20.7137 18.4516 20.8809 17.8774L20.8818 17.8735C20.9447 17.6535 20.996 17.4407 21.0352 17.2466L21.5557 17.2114C21.5384 17.3085 21.518 17.4092 21.4941 17.5142Z" fill="#737B5F" stroke="#737B5F" stroke-width="1.5625"/>
</svg>
