<svg width="60" height="59" viewBox="0 0 60 59" fill="none" xmlns="http://www.w3.org/2000/svg">
<mask id="path-1-inside-1_522_1045" fill="white">
<path d="M59.6263 25.3879L59.5799 23.4477C59.5477 20.3024 59.4146 17.7247 59.1626 15.3323C59.0436 14.0913 58.8662 12.9818 58.6243 11.8962L58.6586 12.0814C58.5154 11.2069 58.1787 10.4281 57.6948 9.76274L57.7069 9.77867C57.5234 9.55557 57.2815 9.38625 57.0013 9.29661L56.9912 9.29462C56.3783 9.04363 55.6666 8.89821 54.9226 8.89821C53.852 8.89821 52.854 9.19901 52.0072 9.71891L52.0314 9.70497C50.6241 10.7826 49.6805 12.3942 49.5092 14.2248L49.5071 14.2507L48.4809 24.2266C47.8922 23.9178 47.1926 23.7365 46.4506 23.7365C44.7147 23.7365 43.2147 24.7285 42.4969 26.1707L42.4848 26.1966L39.3497 31.5611L33.3959 37.1765C33.2931 37.2721 33.2044 37.3837 33.1338 37.5052L33.1298 37.5111L31.4523 40.3796L30.5854 39.8856C30.5531 39.8677 30.5148 39.8677 30.4805 39.8517C30.295 39.7621 30.0753 39.7083 29.8434 39.7083C29.6115 39.7083 29.3938 39.7601 29.1982 39.8557L29.2063 39.8517C29.172 39.8677 29.1337 39.8677 29.0994 39.8856L28.2325 40.3796L26.557 37.5111C26.4824 37.3837 26.3937 37.2721 26.2929 37.1765L20.3392 31.5611L17.204 26.1966C16.5911 25.0712 15.5649 24.2325 14.331 23.87L14.2967 23.862C13.9741 23.7744 13.6031 23.7246 13.22 23.7246C12.4821 23.7246 11.7886 23.9118 11.1857 24.2405L11.2079 24.2306L10.1837 14.2766C10.0163 12.4101 9.07076 10.7906 7.67154 9.71891L7.65743 9.70895C6.83483 9.20299 5.83481 8.9022 4.76422 8.9022C4.01823 8.9022 3.30854 9.04761 2.65933 9.31255L2.69562 9.2986C2.40529 9.39024 2.16134 9.55956 1.9819 9.78067L1.97988 9.78266C1.496 10.454 1.15325 11.2567 1.01414 12.1252L1.0101 12.1571C0.806469 13.0435 0.635095 14.1292 0.53227 15.2347L0.524205 15.3403C0.2742 17.7247 0.143148 20.3023 0.106857 23.4517C0.0987924 24.1051 0.0786307 24.7584 0.0604851 25.4118C0.0221779 26.0373 0 26.7703 0 27.5074C0 28.9038 0.0786306 30.2802 0.233876 31.6348L0.217747 31.4694C0.939537 36.4116 3.40935 40.6824 6.97999 43.7321L7.0062 43.754C9.11915 45.4074 10.9801 47.2121 12.6333 49.1922L12.6837 49.2539L11.4801 49.9412C11.0244 50.2041 10.724 50.6862 10.724 51.236C10.724 51.5108 10.7986 51.7698 10.9297 51.9909L10.9256 51.9829L14.1616 57.5227C14.3612 57.8613 14.6838 58.1123 15.0689 58.2159L15.079 58.2179C15.1939 58.2497 15.327 58.2677 15.4641 58.2677C15.4661 58.2677 15.4681 58.2677 15.4721 58.2677C15.4741 58.2677 15.4741 58.2677 15.4761 58.2677C15.7524 58.2677 16.0124 58.194 16.2362 58.0645L16.2282 58.0685L29.8434 50.2997L43.4667 58.0685C43.6844 58.192 43.9445 58.2657 44.2227 58.2677C44.7792 58.2657 45.2671 57.9689 45.5292 57.5286L45.5333 57.5207L48.7692 51.9809C48.8942 51.7658 48.9688 51.5089 48.9688 51.234C48.9688 51.0965 48.9507 50.965 48.9164 50.8395L48.9184 50.8495C48.8116 50.4591 48.5575 50.1384 48.2208 49.9431L48.2128 49.9392L47.0071 49.2519C48.7269 47.1962 50.6039 45.3795 52.6564 43.772L52.733 43.7142C56.3016 40.6465 58.7553 36.3897 59.461 31.575L59.4731 31.4675C59.6102 30.2822 59.6888 28.9077 59.6888 27.5173C59.6888 26.7683 59.6666 26.0273 59.6223 25.2903L59.6263 25.3919V25.3879ZM8.92358 41.4473C5.91344 38.8338 3.84081 35.2303 3.22386 31.1567L3.21176 31.0631C3.08878 29.9934 3.02023 28.7544 3.02023 27.4994C3.02023 26.7962 3.04241 26.097 3.08475 25.4058L3.08071 25.5014C3.10289 24.8281 3.12305 24.1549 3.1291 23.4816C3.16338 20.4259 3.2904 17.9359 3.53032 15.6411C3.63113 14.5375 3.78839 13.5455 4.00614 12.5754L3.97589 12.7348C4.02831 12.5037 4.09283 12.2209 4.17146 11.9918C4.37308 11.93 4.60292 11.8942 4.84285 11.8942C5.25818 11.8942 5.64932 12.0017 5.98602 12.191L5.97392 12.185C6.64732 12.7766 7.0929 13.6073 7.17153 14.5415V14.5555L8.61108 28.5392C8.63527 28.7603 8.70382 28.9635 8.81068 29.1408L8.80665 29.1328L15.2947 40.2342C15.5588 40.6943 16.0508 41.0011 16.6153 41.0011C17.45 41.0011 18.1274 40.3318 18.1274 39.5071C18.1274 39.2243 18.0468 38.9593 17.9097 38.7342L17.9137 38.7402L12.2382 29.0273C11.6011 27.9337 11.9781 27.1986 12.5446 26.8759C13.1011 26.5472 13.9418 26.5911 14.585 27.6886L17.827 33.2383C17.9016 33.3658 17.9903 33.4754 18.0931 33.573L24.0469 39.1904L25.6155 41.8716L15.3088 47.75C13.4176 45.3855 11.3188 43.3138 9.00221 41.5071L8.92358 41.4473ZM43.6623 54.7299L30.6035 47.2838C30.5813 47.2719 30.5551 47.2719 30.5329 47.2619C30.3999 47.1922 30.2446 47.1404 30.0793 47.1145L30.0712 47.1125L29.9624 47.1046C29.9261 47.1006 29.8837 47.1006 29.8394 47.1006C29.7224 47.1006 29.6075 47.1145 29.4966 47.1404L29.5067 47.1384C29.4583 47.1504 29.414 47.1683 29.3676 47.1823C29.2648 47.2062 29.174 47.236 29.0873 47.2719L29.0974 47.2679L16.0185 54.7299L14.2947 51.7817L29.8394 42.9154L45.3841 51.7817L43.6623 54.7299ZM56.473 31.0651C55.85 35.2124 53.7955 38.798 50.8277 41.3935L50.8096 41.4095C48.3942 43.2879 46.2813 45.3715 44.4345 47.6723L44.374 47.75L34.0693 41.8736L35.6379 39.1924L41.5916 33.575C41.6945 33.4794 41.7832 33.3678 41.8558 33.2463L41.8598 33.2403L45.1038 27.6906C45.3256 27.2504 45.7046 26.9138 46.1663 26.7484L46.1805 26.7444C46.2752 26.7205 46.3821 26.7066 46.495 26.7066C46.7329 26.7066 46.9567 26.7703 47.1482 26.8799L47.1422 26.8759C47.4325 27.0393 47.6482 27.3062 47.739 27.6229L47.741 27.6309C47.7611 27.7345 47.7732 27.856 47.7732 27.9775C47.7732 28.3679 47.6523 28.7305 47.4446 29.0312L47.4486 29.0253L41.7711 38.7382C41.6441 38.9533 41.5695 39.2103 41.5695 39.4852C41.5695 40.037 41.8699 40.5171 42.3195 40.778L42.3275 40.782C42.5433 40.9015 42.7993 40.9732 43.0735 40.9732C43.632 40.9732 44.1199 40.6804 44.3901 40.2402L44.3941 40.2342L50.8842 29.1328C50.987 28.9615 51.0556 28.7603 51.0757 28.5432V28.5372L52.5133 14.5395C52.5979 13.5973 53.0435 12.7726 53.7109 12.189L53.7149 12.185C54.0435 12.0037 54.4347 11.8981 54.85 11.8981C55.0859 11.8981 55.3157 11.932 55.5315 11.9958L55.5153 11.9918C55.5859 12.2029 55.6605 12.4778 55.719 12.7567L55.7291 12.8085C55.9085 13.5973 56.0597 14.5654 56.1504 15.5515L56.1565 15.6451C56.4004 17.9399 56.5275 20.4298 56.5577 23.4836C56.5658 24.1489 56.5859 24.8162 56.6081 25.4815C56.6464 26.0771 56.6666 26.7723 56.6666 27.4735C56.6666 28.7384 56.596 29.9894 56.4609 31.2185L56.475 31.0671L56.473 31.0651ZM28.4401 26.1807C28.7184 26.4855 29.1176 26.6747 29.5632 26.6747C30.0087 26.6747 30.4079 26.4855 30.6841 26.1827L30.6862 26.1807L40.7348 15.179C42.6663 13.5635 43.882 11.1671 43.882 8.48986C43.882 6.13931 42.9425 4.0039 41.4162 2.43222L41.4183 2.4362C39.8557 0.930259 37.7186 0 35.3597 0C33.1237 0 31.0854 0.836635 29.545 2.20912L29.5531 2.20314C28.1034 1.03384 26.2344 0.324694 24.1961 0.324694C24.1114 0.324694 24.0288 0.326686 23.9461 0.328678H23.9582C21.6759 0.42031 19.6355 1.37646 18.1516 2.87245L18.1496 2.87444C16.5548 4.40628 15.5649 6.54568 15.5649 8.91216C15.5649 11.3842 16.6435 13.6073 18.3613 15.1471L18.3694 15.1531L28.4401 26.1807ZM20.2888 4.98196C21.2847 3.96605 22.6699 3.32662 24.2062 3.29873H24.2122C25.9119 3.35252 27.428 4.09354 28.4905 5.24889L28.4946 5.25287C28.7688 5.52379 29.1458 5.69111 29.5632 5.69111C29.9805 5.69111 30.3595 5.52379 30.6317 5.25287C31.7063 3.85848 33.3858 2.96806 35.277 2.96806C36.8294 2.96806 38.2408 3.56765 39.2831 4.54771L39.2811 4.54572C40.2711 5.57359 40.8779 6.96798 40.8779 8.50181C40.8779 10.3703 39.9767 12.0296 38.5775 13.0814L38.5634 13.0914L38.5129 13.1471L29.5632 22.9477L20.5609 13.0914C19.3532 12.0037 18.5972 10.442 18.5952 8.70698C18.6637 7.24088 19.3008 5.93413 20.2888 4.98196Z"/>
</mask>
<path d="M59.6263 25.3879L59.5799 23.4477C59.5477 20.3024 59.4146 17.7247 59.1626 15.3323C59.0436 14.0913 58.8662 12.9818 58.6243 11.8962L58.6586 12.0814C58.5154 11.2069 58.1787 10.4281 57.6948 9.76274L57.7069 9.77867C57.5234 9.55557 57.2815 9.38625 57.0013 9.29661L56.9912 9.29462C56.3783 9.04363 55.6666 8.89821 54.9226 8.89821C53.852 8.89821 52.854 9.19901 52.0072 9.71891L52.0314 9.70497C50.6241 10.7826 49.6805 12.3942 49.5092 14.2248L49.5071 14.2507L48.4809 24.2266C47.8922 23.9178 47.1926 23.7365 46.4506 23.7365C44.7147 23.7365 43.2147 24.7285 42.4969 26.1707L42.4848 26.1966L39.3497 31.5611L33.3959 37.1765C33.2931 37.2721 33.2044 37.3837 33.1338 37.5052L33.1298 37.5111L31.4523 40.3796L30.5854 39.8856C30.5531 39.8677 30.5148 39.8677 30.4805 39.8517C30.295 39.7621 30.0753 39.7083 29.8434 39.7083C29.6115 39.7083 29.3938 39.7601 29.1982 39.8557L29.2063 39.8517C29.172 39.8677 29.1337 39.8677 29.0994 39.8856L28.2325 40.3796L26.557 37.5111C26.4824 37.3837 26.3937 37.2721 26.2929 37.1765L20.3392 31.5611L17.204 26.1966C16.5911 25.0712 15.5649 24.2325 14.331 23.87L14.2967 23.862C13.9741 23.7744 13.6031 23.7246 13.22 23.7246C12.4821 23.7246 11.7886 23.9118 11.1857 24.2405L11.2079 24.2306L10.1837 14.2766C10.0163 12.4101 9.07076 10.7906 7.67154 9.71891L7.65743 9.70895C6.83483 9.20299 5.83481 8.9022 4.76422 8.9022C4.01823 8.9022 3.30854 9.04761 2.65933 9.31255L2.69562 9.2986C2.40529 9.39024 2.16134 9.55956 1.9819 9.78067L1.97988 9.78266C1.496 10.454 1.15325 11.2567 1.01414 12.1252L1.0101 12.1571C0.806469 13.0435 0.635095 14.1292 0.53227 15.2347L0.524205 15.3403C0.2742 17.7247 0.143148 20.3023 0.106857 23.4517C0.0987924 24.1051 0.0786307 24.7584 0.0604851 25.4118C0.0221779 26.0373 0 26.7703 0 27.5074C0 28.9038 0.0786306 30.2802 0.233876 31.6348L0.217747 31.4694C0.939537 36.4116 3.40935 40.6824 6.97999 43.7321L7.0062 43.754C9.11915 45.4074 10.9801 47.2121 12.6333 49.1922L12.6837 49.2539L11.4801 49.9412C11.0244 50.2041 10.724 50.6862 10.724 51.236C10.724 51.5108 10.7986 51.7698 10.9297 51.9909L10.9256 51.9829L14.1616 57.5227C14.3612 57.8613 14.6838 58.1123 15.0689 58.2159L15.079 58.2179C15.1939 58.2497 15.327 58.2677 15.4641 58.2677C15.4661 58.2677 15.4681 58.2677 15.4721 58.2677C15.4741 58.2677 15.4741 58.2677 15.4761 58.2677C15.7524 58.2677 16.0124 58.194 16.2362 58.0645L16.2282 58.0685L29.8434 50.2997L43.4667 58.0685C43.6844 58.192 43.9445 58.2657 44.2227 58.2677C44.7792 58.2657 45.2671 57.9689 45.5292 57.5286L45.5333 57.5207L48.7692 51.9809C48.8942 51.7658 48.9688 51.5089 48.9688 51.234C48.9688 51.0965 48.9507 50.965 48.9164 50.8395L48.9184 50.8495C48.8116 50.4591 48.5575 50.1384 48.2208 49.9431L48.2128 49.9392L47.0071 49.2519C48.7269 47.1962 50.6039 45.3795 52.6564 43.772L52.733 43.7142C56.3016 40.6465 58.7553 36.3897 59.461 31.575L59.4731 31.4675C59.6102 30.2822 59.6888 28.9077 59.6888 27.5173C59.6888 26.7683 59.6666 26.0273 59.6223 25.2903L59.6263 25.3919V25.3879ZM8.92358 41.4473C5.91344 38.8338 3.84081 35.2303 3.22386 31.1567L3.21176 31.0631C3.08878 29.9934 3.02023 28.7544 3.02023 27.4994C3.02023 26.7962 3.04241 26.097 3.08475 25.4058L3.08071 25.5014C3.10289 24.8281 3.12305 24.1549 3.1291 23.4816C3.16338 20.4259 3.2904 17.9359 3.53032 15.6411C3.63113 14.5375 3.78839 13.5455 4.00614 12.5754L3.97589 12.7348C4.02831 12.5037 4.09283 12.2209 4.17146 11.9918C4.37308 11.93 4.60292 11.8942 4.84285 11.8942C5.25818 11.8942 5.64932 12.0017 5.98602 12.191L5.97392 12.185C6.64732 12.7766 7.0929 13.6073 7.17153 14.5415V14.5555L8.61108 28.5392C8.63527 28.7603 8.70382 28.9635 8.81068 29.1408L8.80665 29.1328L15.2947 40.2342C15.5588 40.6943 16.0508 41.0011 16.6153 41.0011C17.45 41.0011 18.1274 40.3318 18.1274 39.5071C18.1274 39.2243 18.0468 38.9593 17.9097 38.7342L17.9137 38.7402L12.2382 29.0273C11.6011 27.9337 11.9781 27.1986 12.5446 26.8759C13.1011 26.5472 13.9418 26.5911 14.585 27.6886L17.827 33.2383C17.9016 33.3658 17.9903 33.4754 18.0931 33.573L24.0469 39.1904L25.6155 41.8716L15.3088 47.75C13.4176 45.3855 11.3188 43.3138 9.00221 41.5071L8.92358 41.4473ZM43.6623 54.7299L30.6035 47.2838C30.5813 47.2719 30.5551 47.2719 30.5329 47.2619C30.3999 47.1922 30.2446 47.1404 30.0793 47.1145L30.0712 47.1125L29.9624 47.1046C29.9261 47.1006 29.8837 47.1006 29.8394 47.1006C29.7224 47.1006 29.6075 47.1145 29.4966 47.1404L29.5067 47.1384C29.4583 47.1504 29.414 47.1683 29.3676 47.1823C29.2648 47.2062 29.174 47.236 29.0873 47.2719L29.0974 47.2679L16.0185 54.7299L14.2947 51.7817L29.8394 42.9154L45.3841 51.7817L43.6623 54.7299ZM56.473 31.0651C55.85 35.2124 53.7955 38.798 50.8277 41.3935L50.8096 41.4095C48.3942 43.2879 46.2813 45.3715 44.4345 47.6723L44.374 47.75L34.0693 41.8736L35.6379 39.1924L41.5916 33.575C41.6945 33.4794 41.7832 33.3678 41.8558 33.2463L41.8598 33.2403L45.1038 27.6906C45.3256 27.2504 45.7046 26.9138 46.1663 26.7484L46.1805 26.7444C46.2752 26.7205 46.3821 26.7066 46.495 26.7066C46.7329 26.7066 46.9567 26.7703 47.1482 26.8799L47.1422 26.8759C47.4325 27.0393 47.6482 27.3062 47.739 27.6229L47.741 27.6309C47.7611 27.7345 47.7732 27.856 47.7732 27.9775C47.7732 28.3679 47.6523 28.7305 47.4446 29.0312L47.4486 29.0253L41.7711 38.7382C41.6441 38.9533 41.5695 39.2103 41.5695 39.4852C41.5695 40.037 41.8699 40.5171 42.3195 40.778L42.3275 40.782C42.5433 40.9015 42.7993 40.9732 43.0735 40.9732C43.632 40.9732 44.1199 40.6804 44.3901 40.2402L44.3941 40.2342L50.8842 29.1328C50.987 28.9615 51.0556 28.7603 51.0757 28.5432V28.5372L52.5133 14.5395C52.5979 13.5973 53.0435 12.7726 53.7109 12.189L53.7149 12.185C54.0435 12.0037 54.4347 11.8981 54.85 11.8981C55.0859 11.8981 55.3157 11.932 55.5315 11.9958L55.5153 11.9918C55.5859 12.2029 55.6605 12.4778 55.719 12.7567L55.7291 12.8085C55.9085 13.5973 56.0597 14.5654 56.1504 15.5515L56.1565 15.6451C56.4004 17.9399 56.5275 20.4298 56.5577 23.4836C56.5658 24.1489 56.5859 24.8162 56.6081 25.4815C56.6464 26.0771 56.6666 26.7723 56.6666 27.4735C56.6666 28.7384 56.596 29.9894 56.4609 31.2185L56.475 31.0671L56.473 31.0651ZM28.4401 26.1807C28.7184 26.4855 29.1176 26.6747 29.5632 26.6747C30.0087 26.6747 30.4079 26.4855 30.6841 26.1827L30.6862 26.1807L40.7348 15.179C42.6663 13.5635 43.882 11.1671 43.882 8.48986C43.882 6.13931 42.9425 4.0039 41.4162 2.43222L41.4183 2.4362C39.8557 0.930259 37.7186 0 35.3597 0C33.1237 0 31.0854 0.836635 29.545 2.20912L29.5531 2.20314C28.1034 1.03384 26.2344 0.324694 24.1961 0.324694C24.1114 0.324694 24.0288 0.326686 23.9461 0.328678H23.9582C21.6759 0.42031 19.6355 1.37646 18.1516 2.87245L18.1496 2.87444C16.5548 4.40628 15.5649 6.54568 15.5649 8.91216C15.5649 11.3842 16.6435 13.6073 18.3613 15.1471L18.3694 15.1531L28.4401 26.1807ZM20.2888 4.98196C21.2847 3.96605 22.6699 3.32662 24.2062 3.29873H24.2122C25.9119 3.35252 27.428 4.09354 28.4905 5.24889L28.4946 5.25287C28.7688 5.52379 29.1458 5.69111 29.5632 5.69111C29.9805 5.69111 30.3595 5.52379 30.6317 5.25287C31.7063 3.85848 33.3858 2.96806 35.277 2.96806C36.8294 2.96806 38.2408 3.56765 39.2831 4.54771L39.2811 4.54572C40.2711 5.57359 40.8779 6.96798 40.8779 8.50181C40.8779 10.3703 39.9767 12.0296 38.5775 13.0814L38.5634 13.0914L38.5129 13.1471L29.5632 22.9477L20.5609 13.0914C19.3532 12.0037 18.5972 10.442 18.5952 8.70698C18.6637 7.24088 19.3008 5.93413 20.2888 4.98196Z" fill="#737B5F" stroke="#737B5F" stroke-width="50" mask="url(#path-1-inside-1_522_1045)"/>
</svg>
