<svg width="30" height="25" viewBox="0 0 30 25" fill="none" xmlns="http://www.w3.org/2000/svg">
<path d="M0.107792 13.8299C0.0162639 12.5889 8.59032 -0.20221 19.5794 0.105468C30.8924 0.422216 29.6025 7.42137 28.9616 10.6545C28.3208 13.8877 21.6508 24.7353 5.17459 24.5455C10.5909 14.5851 0.433303 13.3932 0.107792 13.8299C0.11049 13.8665 0.12072 13.8931 0.138639 13.9089C0.100253 13.879 0.09111 13.8523 0.107792 13.8299Z" fill="#FECAD2"/>
<path d="M19.5794 0.105468C8.26637 -0.21128 -0.487154 13.3544 0.138639 13.9089C-0.648746 13.2941 10.8684 14.0746 5.17459 24.5455C21.6508 24.7353 28.3208 13.8877 28.9616 10.6545C29.6025 7.42137 30.8924 0.422216 19.5794 0.105468Z" stroke="#F995A7" stroke-width="0.2" stroke-linejoin="round"/>
</svg>
