<svg width="170" height="166" viewBox="0 0 170 166" fill="none" xmlns="http://www.w3.org/2000/svg">
<circle cx="84.7795" cy="83.3304" r="65.9397" fill="white"/>
<path fill-rule="evenodd" clip-rule="evenodd" d="M54.5832 28.6765C54.1532 28.9202 52.8343 29.6686 51.6524 30.3399C45.4993 33.8334 38.4552 39.8737 33.8202 45.6314C29.6258 50.842 25.2244 58.9849 23.0376 65.5802C22.6971 66.6073 22.3852 67.5176 22.3448 67.603C22.0746 68.1731 21.321 71.2438 20.9276 73.3776C19.1976 82.7635 19.6488 92.1576 22.2915 101.77C23.4314 105.916 27.1366 114.388 29.2124 117.593C34.0901 125.126 40.0886 131.213 46.7591 135.398C51.6163 138.447 54.3411 139.79 59.4341 141.649C65.8899 144.005 71.7631 145.149 79.0807 145.479C87.0526 145.837 93.4562 144.98 102.634 142.324C106.195 141.293 115.504 137.146 118.769 135.135C128.77 128.976 135.455 122.556 140.976 113.808C145.395 106.806 147.76 100.945 149.318 93.135C150.861 85.4026 150.531 76.4868 148.391 68.0521C146.69 61.3451 142.669 52.7399 138.497 46.8759C136.025 43.4017 134.497 41.605 131.594 38.7567C118.289 25.7028 101.941 19.7225 82.3794 20.7533C77.0175 21.036 72.2542 21.9319 66.4611 23.7473C64.3682 24.4031 55.9837 27.8826 54.5832 28.6765ZM64.8709 27.8774C77.8642 23.0026 91.5214 22.59 104.458 26.6811C111.204 28.8141 116.234 31.3087 121.438 35.1015C125.434 38.0146 128.335 40.7088 131.953 44.8696C133.743 46.9291 134.295 47.6633 136.243 50.5834C139.345 55.2328 142.882 63.0299 144.097 67.8929C144.791 70.6742 145.297 73.1798 145.333 74.0202C145.346 74.3173 145.441 75.295 145.543 76.1926C145.646 77.0903 145.73 78.1552 145.731 78.5591C145.732 78.963 145.754 80.0007 145.779 80.8652C145.938 86.2311 144.635 93.3082 142.349 99.504C138.556 109.784 131 119.81 121.788 126.788C113.969 132.71 105.295 136.851 96.3547 138.928C90.5539 140.276 85.1426 140.782 79.0313 140.547C74.0274 140.356 68.1411 139.535 64.7468 138.557C59.742 137.114 54.4433 134.806 49.8448 132.067C43.8036 128.47 39.0663 123.993 34.4972 117.563C29.5996 110.672 26.2459 102.587 24.5423 93.5651C22.9579 85.1736 23.5783 75.9468 26.2993 67.4383C26.7013 66.1817 27.1607 64.7215 27.3208 64.1934C28.1056 61.601 31.2148 55.4617 33.5022 51.988C36.5805 47.3135 41.4391 41.9838 45.51 38.8165C52.3255 33.5138 57.222 30.7472 64.8709 27.8774ZM64.3558 31.9488C62.1198 33.0313 58.1814 35.258 57.3686 35.8995C56.3306 36.7184 56.401 37.9449 57.4961 38.123C58.0173 38.2077 58.5323 37.9798 61.7231 36.2524C63.7217 35.1703 65.3964 34.3002 65.4446 34.319C65.5361 34.3543 65.7181 37.2449 65.729 38.8321C65.7346 39.6634 65.6621 39.7806 64.9462 40.0987C64.5122 40.2915 63.884 40.6424 63.5501 40.8788C62.9446 41.3073 62.9427 41.3064 62.7629 40.5548C62.2542 38.4266 62.1475 38.1485 61.7687 37.9606C61.2452 37.7007 59.8768 38.3193 59.7169 38.8882C59.5552 39.4642 59.959 43.24 60.2528 43.8991C60.767 45.0519 60.705 45.0692 65.7304 42.369C70.9961 39.5397 71.6322 39.2394 71.7577 39.522C72.0968 40.2852 72.8698 43.9057 72.796 44.3854C72.6737 45.1806 72.0311 45.6342 70.6718 45.8847C69.2465 46.1476 68.9104 46.4578 69.3146 47.1377C69.7109 47.8044 72.0164 48.26 73.8438 48.0326C74.9321 47.8972 75.2678 47.7705 75.7862 47.2998C77.0693 46.1343 77.0577 45.0576 75.7106 40.3596C74.9265 37.626 74.4997 36.8983 73.4668 36.5356C72.8157 36.307 72.4737 36.3715 70.6795 37.0612L68.6343 37.8474L68.5791 35.5445C68.5037 32.3908 68.4318 31.8353 68.0314 31.3235C67.6935 30.8913 66.6487 30.7181 66.194 31.0186C66.0689 31.1014 65.2417 31.5199 64.3558 31.9488ZM44.4905 45.2814C42.61 47.1502 39.6925 50.4624 38.2957 52.3141C37.5834 53.2586 37.4839 53.5424 37.6699 54.1026C37.8999 54.7959 38.7532 55.1684 39.424 54.8681C39.5954 54.7915 40.5647 53.7451 41.5779 52.5427C43.8149 49.8887 44.5115 49.1389 44.6801 49.2039C44.8578 49.2724 49.1148 53.3703 51.0452 55.3312C52.6307 56.9414 52.6327 56.9447 52.3669 57.4666C52.2203 57.7539 51.7642 58.208 51.3529 58.4755C50.9418 58.7431 50.468 59.2317 50.2999 59.5615C49.6447 60.8473 51.3808 60.8224 54.3537 59.5036C56.0145 58.7669 56.232 58.6129 56.4332 58.0298C56.777 57.0328 56.554 56.3134 55.6109 55.3764C54.5957 54.368 47.0527 47.2593 46.8489 47.1191C46.7696 47.0644 47.1178 46.6471 47.6229 46.1916C48.128 45.7359 48.6158 45.221 48.7067 45.0471C49.1252 44.2474 47.5693 42.9087 46.6976 43.3188C46.4553 43.4326 45.462 44.3159 44.4905 45.2814ZM82.7693 29.89C82.1806 30.373 81.9618 31.1011 82.2265 31.6969C82.6146 32.5703 83.4045 39.5305 83.2741 40.9257C83.1604 42.1384 83.1771 42.1964 83.818 42.8022C84.5735 43.5165 85.4762 43.5702 86.3531 42.9529C87.8324 41.9112 90.1136 40.0815 90.9313 39.2806C91.7857 38.4441 91.8167 38.3602 91.4864 37.7766C91.1507 37.183 91.1006 37.1749 90.2186 37.5697C89.7135 37.7958 88.6527 38.352 87.861 38.8057L86.4216 39.6305L86.1911 38.7627C86.0642 38.2855 85.9445 37.6091 85.9253 37.2597L85.8901 36.6244L88.2501 35.7477C90.4576 34.9278 90.6225 34.8335 90.8013 34.2883C91.234 32.9683 89.9685 32.6895 87.5136 33.5645C86.6677 33.8659 85.8931 34.056 85.7923 33.9871C85.6912 33.9181 85.5417 33.2718 85.4596 32.5508L85.3108 31.24L86.3911 30.9006C89.1794 30.0248 91.2911 29.1614 91.7293 28.7183C92.3449 28.0956 91.9982 27.2895 90.9622 26.9345C90.2607 26.6945 90.0372 26.7448 88.2161 27.554C87.1256 28.0385 85.5347 28.6962 84.6807 29.0154C83.8266 29.3347 82.9665 29.7281 82.7693 29.89ZM91.7505 30.4706C91.6936 30.673 91.8016 32.4165 91.9906 34.3451C92.1798 36.2735 92.4295 39.0733 92.5456 40.5667C92.8393 44.3421 93.2729 45.1517 94.6687 44.5315C95.5005 44.1619 95.6524 43.6356 95.5611 41.4401C95.5197 40.4478 95.5704 39.5984 95.6736 39.5526C95.7768 39.5067 96.7318 39.8818 97.7955 40.386C99.4733 41.1815 99.8193 41.263 100.407 41.0016C101.82 40.3741 102.06 39.1943 101.796 34.1838C101.589 30.2464 101.422 29.3402 100.815 28.8679C100.124 28.3293 97.8538 28.4008 95.3067 29.0414C92.4574 29.7579 91.8861 29.9875 91.7505 30.4706ZM33.5652 56.5346C32.143 57.719 32.2282 59.2961 33.7175 59.3551C34.1283 59.3713 35.1796 59.109 36.0535 58.7721C38.4566 57.8454 39.0722 56.823 37.9213 55.6689C37.1855 54.9313 34.9587 55.3737 33.5652 56.5346ZM43.7111 52.6819C42.6201 53.69 40.909 55.972 40.649 56.7655C40.4519 57.3665 40.463 57.3817 41.894 58.4971C44.3496 60.4113 45.2158 60.8709 45.8384 60.5904C46.5636 60.2635 49.6366 56.6338 49.6105 56.1351C49.5901 55.7462 46.8904 52.8887 45.9659 52.2771C45.1286 51.7236 44.6564 51.8084 43.7111 52.6819ZM65.6902 44.3127C64.4042 45.0525 62.5768 46.0193 61.6295 46.4616C58.939 47.7171 58.1977 48.7001 59.1822 49.7071C59.896 50.4371 60.4866 50.2156 65.8591 47.2036C68.6268 45.6521 71.0435 44.1868 71.2295 43.9474C71.7522 43.2748 71.4959 42.3487 70.7298 42.1423C70.0006 41.9459 69.223 42.2807 65.6902 44.3127ZM97.6693 31.0741C98.2132 31.0542 98.1938 30.9841 98.2987 33.3654C98.4784 37.4496 98.3218 37.8416 96.5417 37.763C95.224 37.7049 95.2673 37.7886 94.858 34.5251C94.7141 33.3763 94.6768 32.2808 94.7752 32.0906C94.954 31.7456 96.7724 31.1071 97.6693 31.0741ZM45.803 55.4548C46.228 55.7996 46.6107 56.1604 46.6534 56.2566C46.7713 56.5218 45.59 57.8189 45.3307 57.7089C45.2061 57.656 44.7513 57.3345 44.3204 56.9946L43.5368 56.3763L43.9306 55.7605C44.5285 54.8255 44.9435 54.7578 45.803 55.4548ZM36.0751 61.0821C34.5099 62.703 35.4147 63.5316 38.1904 63.0195C40.1026 62.6669 41.2409 61.0748 40.3735 59.9657C39.5868 58.96 37.6348 59.467 36.0751 61.0821ZM41.7373 62.4773C41.6716 63.0793 41.6318 64.2821 41.6491 65.1502C41.6662 66.0185 41.6304 66.9164 41.5695 67.1456C41.3159 68.101 41.5524 68.5452 42.4546 68.8066C43.3729 69.0727 44.3253 68.8039 44.8481 68.1314C46.1307 66.4813 43.6318 60.5943 41.9637 61.3355C41.9049 61.3616 41.8029 61.8754 41.7373 62.4773ZM29.5729 68.968C27.9499 73.4369 26.926 80.37 27.0717 85.9022C27.2736 93.5615 28.9587 100.036 32.8857 108.243C36.6413 116.092 40.9649 121.433 47.5049 126.304C49.8214 128.029 50.3638 128.194 51.0065 127.367C51.7034 126.471 51.3887 126.023 48.3061 123.526C41.3302 117.874 37.3139 112.356 33.7081 103.468C32.1632 99.6604 31.2863 96.8604 30.7028 93.8721C29.1264 85.8009 29.5685 77.5328 32.0744 68.2176C32.3091 67.345 32.2907 67.2611 31.7805 66.88C30.8186 66.161 30.474 66.4869 29.5729 68.968ZM107.7 32.8615C107.575 33.1864 107.515 33.548 107.567 33.6651C107.619 33.7819 108.715 34.425 110.003 35.094C116.5 38.469 121.673 42.4628 126.391 47.7471C130.541 52.3939 133.071 56.323 135.683 62.1756C139.066 69.755 140.298 76.1922 139.823 83.7942C139.713 85.5386 139.749 86.8407 139.91 87.0019C140.255 87.3484 141.807 87.398 142.132 87.073C142.535 86.67 142.725 79.4045 142.414 76.2474C141.415 66.0874 136.368 54.7847 129.263 46.7996C123.828 40.6904 116.873 35.5173 110.553 32.8825C109.417 32.409 108.361 32.0775 108.207 32.1461C108.053 32.2146 107.824 32.5366 107.7 32.8615ZM50.6902 66.9967C49.3874 68.125 48.4417 70.1279 48.4108 71.8231C48.3843 73.2794 49.3419 75.3271 50.5659 76.432C51.5654 77.3342 53.9869 78.3348 54.9205 78.2311C55.2063 78.1994 55.4395 78.2472 55.4384 78.3374C55.4374 78.4275 55.3898 79.5692 55.3325 80.8748C55.199 83.9216 55.6119 86.8986 56.4995 89.2859C57.1836 91.1261 57.1901 91.2002 56.7941 92.6613C55.8958 95.9747 56.1388 99.1237 57.535 102.266C59.0365 105.645 61.2831 107.777 64.4714 108.847L65.8066 109.296L65.7066 111.484C65.6517 112.687 65.7075 114.48 65.8309 115.468L66.055 117.265L65.0637 117.708C61.9612 119.094 59.9232 121.979 59.7644 125.21C59.7067 126.382 59.8224 126.903 60.5385 128.702C61.4839 131.078 62.3309 132.202 64.044 133.353C66.19 134.795 68.473 135.201 71.3615 134.654C73.3546 134.276 78.0771 132.035 79.4699 130.805L80.3906 129.992L82.0946 130.655C83.0317 131.02 84.3676 131.36 85.0632 131.41C90.3067 131.788 96.5137 128.359 98.0092 124.257L98.4605 123.019L101.541 121.778L104.621 120.537L106.004 121.07C107.095 121.491 107.837 121.574 109.521 121.466C111.524 121.338 111.82 121.257 114.315 120.157C116.524 119.183 117.199 118.789 118.298 117.832C120.093 116.27 121.029 114.952 121.82 112.87C122.475 111.149 122.501 111.117 123.235 111.098C124.446 111.066 127.994 110.083 129.814 109.274C134.532 107.178 137.004 104.082 137.088 100.164C137.127 98.3771 137.09 98.2209 136.114 96.0622C135.332 94.3317 134.91 93.6364 134.271 93.0243C132.168 91.0092 129.423 90.2021 126.578 90.7616C125.724 90.9296 124.899 91.123 124.745 91.1914C124.583 91.2633 124.089 90.8884 123.573 90.3033C122.722 89.3359 120.025 87.0403 118.765 86.2093C118.173 85.8194 118.172 85.8086 118.606 84.5258C119.104 83.0514 119.237 81.3703 118.999 79.5516C118.79 77.9537 117.306 74.5824 116.129 73.0321C114.919 71.4389 112.5 69.5153 110.723 68.7336C109.292 68.1043 109.181 68.0033 108.208 66.445C107.649 65.5483 106.799 64.3272 106.32 63.7315C105.322 62.489 102.581 59.8556 101.43 59.0339C100.668 58.4894 100.656 58.4677 100.948 58.0934C101.631 57.2186 102.385 54.637 102.284 53.5211C102.151 52.0549 101.369 50.2998 100.365 49.2126C99.2338 47.9895 96.903 47.1301 95.2857 47.3402C91.7996 47.7926 89.1179 50.3311 88.6379 53.6326L88.4963 54.6074L86.6069 54.6323C82.3685 54.6884 78.4621 55.6539 73.435 57.8881C68.4384 60.1088 65.1416 62.3371 61.9763 65.6335C60.5251 67.1446 60.477 67.1763 60.0826 66.8779C59.8598 66.7096 58.8625 66.2534 57.8659 65.8645C56.4518 65.3124 55.7845 65.1922 54.8257 65.3166C53.5492 65.4823 51.4573 66.3322 50.6902 66.9967ZM55.8648 67.8049C56.9515 67.9144 58.7825 68.6867 58.9732 69.116C59.0864 69.3707 58.0461 71.5842 57.7519 71.7149C57.6536 71.7586 56.9348 71.5267 56.1543 71.1998C55.3473 70.8614 54.5548 70.6856 54.3161 70.7916C53.5656 71.1251 53.2779 71.7159 53.5585 72.3473C53.7703 72.8241 54.1184 73.0161 55.3134 73.3156L56.8039 73.6892L56.5041 74.7565C56.3391 75.3434 56.0472 75.8955 55.8554 75.9831C54.842 76.4462 51.8693 74.6027 51.1999 73.096C49.9893 70.3715 52.5469 67.4706 55.8648 67.8049ZM96.5133 49.7336C97.954 50.0615 98.5174 50.5336 99.1404 51.9358C99.602 52.9747 99.6915 53.4708 99.5866 54.4092C99.4525 55.6088 98.848 57.1293 98.4318 57.3142C98.3043 57.3708 97.644 57.209 96.9647 56.9545L95.7298 56.4916L96.3982 55.43C97.2079 54.1441 97.3031 53.1238 96.6659 52.5587C96.348 52.2766 96.0609 52.2428 95.6257 52.4361C95.1548 52.6454 94.9161 53.0438 94.5214 54.2792L94.0178 55.8556L92.5822 55.4653C91.7924 55.2505 91.0912 54.951 91.024 54.7996C90.8412 54.3884 91.7262 51.9414 92.2864 51.3085C93.032 50.4664 95.5734 49.5195 96.5133 49.7336ZM80.9994 57.5676C85.1164 56.7518 87.4321 56.6416 90.3259 57.1237C95.0043 57.9028 99.8674 60.6717 103.13 64.414C104.376 65.843 106.016 68.17 106.445 69.1168C106.724 69.7318 107.05 70.0025 108.04 70.4397C111.544 71.9871 113.636 74.0189 115.068 77.2652C115.936 79.2327 115.977 79.4276 115.906 81.1948C115.714 85.947 112.374 90.6789 106.373 94.6995C103.907 96.3515 103.774 96.4863 104.334 96.7644C104.677 96.9343 105.109 96.7757 107.183 95.7181C110.947 93.798 113.503 91.8314 115.658 89.1964C116.069 88.6935 116.492 88.2437 116.597 88.1968C117.219 87.9209 120.809 91.3632 122.447 93.8053C125.33 98.1056 125.503 103.493 122.862 106.757C122.518 107.182 122.192 107.513 122.138 107.492C122.084 107.472 121.897 106.748 121.722 105.884C121.546 105.021 120.985 103.342 120.475 102.154C119.26 99.3283 118.313 98.4059 117.479 99.2385C117.074 99.6439 117.209 100.515 117.93 102.137C119 104.545 119.674 108.073 119.469 110.193C119.276 112.197 118.047 114.514 117.65 113.622C117.463 113.2 115.961 112.748 115.129 112.864C114.598 112.938 114.218 113.131 113.851 113.514C113.382 114.002 113.235 114.041 112.421 113.894C111.369 113.704 110.517 114.019 109.86 114.839C109.605 115.158 109.361 115.339 109.318 115.242C109.053 114.647 106.637 115.396 106.187 116.212C105.727 117.044 105.585 116.915 104.941 115.08C104.135 112.78 103.837 110.657 103.959 108.084C104.04 106.386 103.988 105.985 103.666 105.826C102.698 105.345 102.096 106.564 101.992 109.216C101.897 111.646 102.181 113.849 102.852 115.873C103.57 118.04 103.547 118.082 101.011 119.174C98.005 120.468 97.6373 120.493 96.9413 119.454C94.372 115.618 92.2742 113.427 90.159 112.368C88.4671 111.522 87.2563 112.633 88.7791 113.635C90.9026 115.032 92.4479 116.709 94.2041 119.523C95.329 121.325 95.3261 121.439 94.1579 121.32C93.2988 121.232 91.9394 121.847 91.5464 122.501C91.288 122.931 91.1474 123.009 90.8051 122.912C90.2053 122.743 88.6898 123.472 88.3033 124.115C88.0706 124.502 87.7171 124.734 87.0733 124.92C85.9549 125.244 85.2785 126.03 84.959 127.377L84.7289 128.348L83.8698 128.045C81.2878 127.136 78.4545 123.937 76.6423 119.884C75.9076 118.24 75.4627 117.866 74.7971 118.33C74.1987 118.747 74.5283 120.205 75.8318 122.909C76.487 124.269 76.9573 125.41 76.8766 125.446C76.5828 125.577 74.466 124.421 73.5461 123.628C70.3742 120.893 68.4684 116.421 68.5329 111.865C68.5574 110.138 68.756 109.673 69.3861 109.868C69.9679 110.047 73.5132 109.827 75.2744 109.502C77.6086 109.071 81.2106 107.544 81.3887 106.91C81.5335 106.395 81.1099 106.397 78.5846 106.92C74.8408 107.696 70.4576 107.649 67.5563 106.803C61.0027 104.891 57.8673 99.1529 59.7452 92.5082L60.2215 90.8236L59.4756 88.8305C57.5805 83.7672 57.617 77.9468 59.5731 73.3194C61.4053 68.9847 64.2893 65.7491 69.0726 62.6621C71.5558 61.0594 78.6325 58.0367 80.9994 57.5676ZM68.0721 82.9859C67.4217 83.6267 67.0698 84.5773 67.1221 85.5512C67.3121 89.0795 71.9443 89.788 73.1371 86.4712C74.1554 83.6388 70.1832 80.9054 68.0721 82.9859ZM93.3027 71.8252C93.111 72.0321 92.8213 72.6807 92.6587 73.2667C92.4075 74.1716 92.4374 74.4994 92.8565 75.4426C93.7595 77.4747 95.7949 77.9439 97.5918 76.5345C98.7154 75.6533 98.9491 74.8341 98.4766 73.4327C98.0366 72.1273 97.199 71.3167 96.0263 71.0611C95.216 70.8844 93.8085 71.2792 93.3027 71.8252ZM78.1082 82.2712C75.9978 83.7653 74.9133 84.9283 74.99 85.6152C75.0995 86.5961 75.5461 86.4571 77.719 84.7672C81.3099 81.9741 87.0263 79.5421 91.3432 78.9712C92.1841 78.8599 92.5218 78.7307 92.6501 78.4711C93.0627 77.637 92.2617 77.3266 90.2391 77.5359C86.7336 77.8989 81.2745 80.0298 78.1082 82.2712ZM64.2229 90.6783C62.7747 91.6538 62.0645 92.9275 62.3344 94.0651C63.0028 96.8828 68.2441 95.9905 69.4483 92.8541C70.4831 90.1589 67.0908 88.7464 64.2229 90.6783ZM100.963 74.6907C100.107 75.7987 99.9343 76.5045 100.312 77.3546C100.79 78.431 101.505 78.8328 102.915 78.8166C104.486 78.7988 105.893 78.1603 106.793 77.0574C107.711 75.9319 107.793 75.0743 107.072 74.1498C106.235 73.0764 104.634 72.8487 102.83 73.5463C101.831 73.9326 101.296 74.2607 100.963 74.6907ZM77.7981 87.9356C77.3721 88.4902 77.3684 89.2996 77.7894 89.8995C78.1732 90.446 79.3994 90.5825 80.3068 90.1793C81.4144 89.6872 81.7346 88.9559 81.2854 87.9448C80.9949 87.2911 80.8105 87.1564 80.0658 87.0546C79.0404 86.9142 78.3879 87.1679 77.7981 87.9356ZM90.5719 82.2357C89.438 83.4677 89.8494 85.1121 91.2846 85.0839C92.8143 85.0539 94.0089 83.5422 93.4669 82.3223C93.019 81.3145 91.4629 81.268 90.5719 82.2357ZM80.9332 94.9986C80.339 95.8229 81.6801 96.9092 83.5654 97.1303C84.6469 97.2571 85.0328 97.1834 86.3536 96.598C87.5979 96.0466 88.0091 95.7529 88.5362 95.0402L89.1858 94.1619L90.2723 94.2671C91.7734 94.4125 94.13 93.3967 95.0659 92.2008C95.8266 91.2285 96.4109 89.4986 96.1653 88.9458C96.0188 88.6162 95.2712 88.3631 94.9132 88.5222C94.8595 88.546 94.6004 89.1634 94.3376 89.8939C93.5653 92.041 91.8486 92.9679 89.7052 92.3949C89.0686 92.2248 88.4376 92.1345 88.3027 92.1944C88.1679 92.2543 87.8688 92.7133 87.6381 93.2144C86.7221 95.2039 84.9925 95.8384 82.7702 94.9999C81.3383 94.4594 81.3219 94.4594 80.9332 94.9986ZM68.3258 121.994C70.234 124.994 71.9934 126.523 75.0182 127.81C76.1914 128.308 77.0992 128.793 77.036 128.886C76.8091 129.217 74.6779 130.588 73.7413 131.004L72.7875 131.428L71.8698 129.692C69.9948 126.146 67.2722 123.392 64.8663 122.608L63.4251 122.139L64.1115 121.591C64.4889 121.29 65.0791 120.809 65.423 120.523C66.6958 119.464 66.7279 119.48 68.3258 121.994ZM127.023 93.1439C127.527 93.0667 128.298 93.0107 128.737 93.0192L129.534 93.0348L129.234 94.1837C128.83 95.7306 128.691 96.9925 128.786 98.2426C128.911 99.8831 129.726 103.357 130.276 104.594L130.777 105.723L128.433 106.658C125.706 107.747 125.212 107.788 125.846 106.872C127.933 103.859 128.076 97.6574 126.134 94.433C125.516 93.4068 125.541 93.3707 127.023 93.1439ZM64.6517 123.922C65.6146 124.143 67.5389 125.675 67.732 126.374C67.845 126.783 67.7109 126.787 66.326 126.41C65.4841 126.181 64.2952 125.92 63.6838 125.832C62.4325 125.651 62.2393 125.421 62.5582 124.494C62.8142 123.749 63.308 123.614 64.6517 123.922ZM132.089 94.3771C132.658 94.8145 132.657 94.82 131.931 96.4803C131.253 98.0292 130.571 99.0441 130.282 98.933C130.019 98.8312 130.076 95.7851 130.356 95.0062C130.718 94.0018 131.318 93.7838 132.089 94.3771ZM94.7437 122.754C95.1771 122.912 95.4203 123.143 95.4342 123.411C95.4614 123.931 94.7256 124.865 94.054 125.163C93.6335 125.35 93.4638 125.277 93.1011 124.751C92.8585 124.398 92.6364 123.898 92.6073 123.638C92.511 122.775 93.5853 122.331 94.7437 122.754ZM91.0037 124.252C91.3521 124.36 91.7809 124.776 92.1103 125.324C92.6374 126.202 92.6367 126.228 92.0731 126.627C90.54 127.712 90.1213 127.653 89.5048 126.265C88.9247 124.96 89.7423 123.862 91.0037 124.252ZM108.468 116.256C108.974 116.332 109.689 117.181 109.849 117.897C109.981 118.482 109.927 118.577 109.407 118.677C107.521 119.041 106.269 118.157 107.113 117.059C107.599 116.426 108.004 116.186 108.468 116.256ZM112.587 115.029C112.779 115.079 113.131 115.565 113.377 116.117L113.82 117.116L112.588 117.663C111.174 118.291 110.908 118.177 110.778 116.885C110.641 115.512 111.413 114.72 112.587 115.029ZM87.6912 126.113C87.8826 126.208 88.3549 126.62 88.7409 127.028L89.4423 127.771L88.343 128.111C87.1161 128.491 86.5465 128.417 86.293 127.847C85.9056 126.975 86.9125 125.727 87.6912 126.113ZM115.867 114.137C116.581 114.277 117.013 115.101 116.625 115.582C116.473 115.77 115.985 116.158 115.54 116.443C114.79 116.924 114.715 116.928 114.526 116.499C114.233 115.838 114.473 114.375 114.906 114.183C115.107 114.094 115.54 114.073 115.867 114.137Z" fill="#A18888"/>
</svg>
