<svg width="633" height="737" viewBox="0 0 633 737" fill="none" xmlns="http://www.w3.org/2000/svg">
<path d="M245.359 0.00012207H294.431V49.072H245.359V0.00012207Z" fill="#D7DDCB" fill-opacity="0.3"/>
<path d="M343.504 0.00012207H392.576V49.072H343.504V0.00012207Z" fill="#D7DDCB" fill-opacity="0.3"/>
<path d="M196.289 49.0718H245.361V98.1436H196.289V49.0718Z" fill="#D7DDCB" fill-opacity="0.3"/>
<path d="M294.431 49.0718H343.503V98.1436H392.575V147.215H343.503V196.287H294.431V147.215H245.359V98.1436H294.431V49.0718Z" fill="#D7DDCB" fill-opacity="0.3"/>
<path d="M392.577 49.0718H441.649V98.1436H392.577V49.0718Z" fill="#D7DDCB" fill-opacity="0.3"/>
<path d="M196.289 147.216H245.361V196.288H196.289V147.216Z" fill="#D7DDCB" fill-opacity="0.3"/>
<path d="M392.577 147.216H441.649V196.288H392.577V147.216Z" fill="#D7DDCB" fill-opacity="0.3"/>
<path d="M245.359 196.287H294.431V245.359H245.359V196.287Z" fill="#D7DDCB" fill-opacity="0.3"/>
<path d="M343.504 196.288H392.576V245.359H343.504V196.288Z" fill="#D7DDCB" fill-opacity="0.3"/>
<path d="M49.0703 245.36H98.1422V294.431H49.0703V245.36Z" fill="#D7DDCB" fill-opacity="0.3"/>
<path d="M147.215 245.36H196.287V294.431H147.215V245.36Z" fill="#D7DDCB" fill-opacity="0.3"/>
<path d="M294.43 245.36H343.502V343.503H294.43V245.36Z" fill="#D7DDCB" fill-opacity="0.3"/>
<path d="M0 294.431H49.0718V343.503H0V294.431Z" fill="#D7DDCB" fill-opacity="0.3"/>
<path d="M98.1422 294.431H147.214V343.503H196.286V392.575H147.214V441.647H98.1422V392.575H49.0703V343.503H98.1422V294.431Z" fill="#D7DDCB" fill-opacity="0.3"/>
<path d="M196.289 294.431H245.361V343.503H196.289V294.431Z" fill="#D7DDCB" fill-opacity="0.3"/>
<path d="M441.65 294.431H490.722V343.503H441.65V294.431Z" fill="#D7DDCB" fill-opacity="0.3"/>
<path d="M539.791 294.431H588.863V343.503H539.791V294.431Z" fill="#D7DDCB" fill-opacity="0.3"/>
<path d="M343.504 343.503H441.648V392.575H392.576V441.646H441.648V490.718H490.719V539.79H441.648V637.934H343.504V588.862H392.576V490.718H343.504V343.503Z" fill="#D7DDCB" fill-opacity="0.3"/>
<path d="M490.722 343.503H539.794V392.575H588.866V441.646H539.794V490.718H490.722V441.646H441.65V392.575H490.722V343.503Z" fill="#D7DDCB" fill-opacity="0.3"/>
<path d="M588.862 343.503H637.934V392.575H588.862V343.503Z" fill="#D7DDCB" fill-opacity="0.3"/>
<path d="M0 392.576H49.0718V441.648H0V392.576Z" fill="#D7DDCB" fill-opacity="0.3"/>
<path d="M196.289 392.576H245.361V441.648H196.289V392.576Z" fill="#D7DDCB" fill-opacity="0.3"/>
<path d="M49.0703 441.647H98.1422V490.719H49.0703V441.647Z" fill="#D7DDCB" fill-opacity="0.3"/>
<path d="M147.215 441.647H196.287V490.719H147.215V441.647Z" fill="#D7DDCB" fill-opacity="0.3"/>
<path d="M245.359 441.647H294.431V539.791H245.359V441.647Z" fill="#D7DDCB" fill-opacity="0.3"/>
<path d="M588.862 441.647H637.934V490.719H588.862V441.647Z" fill="#D7DDCB" fill-opacity="0.3"/>
<path d="M539.791 490.718H588.863V539.79H539.791V490.718Z" fill="#D7DDCB" fill-opacity="0.3"/>
<path d="M294.43 539.791H343.502V588.863H294.43V539.791Z" fill="#D7DDCB" fill-opacity="0.3"/>
<path d="M441.65 637.934H490.722V687.006H441.65V637.934Z" fill="#D7DDCB" fill-opacity="0.3"/>
<path d="M490.721 687.006H637.936V736.078H490.721V687.006Z" fill="#D7DDCB" fill-opacity="0.3"/>
</svg>
