<svg width="510" height="696" viewBox="0 0 510 696" fill="none" xmlns="http://www.w3.org/2000/svg">
<path d="M137.999 0H184.398V46.3999H137.999V0Z" fill="#FFF2F7" fill-opacity="0.25"/>
<path d="M230.799 0H277.199V46.3999H230.799V0Z" fill="#FFF2F7" fill-opacity="0.25"/>
<path d="M91.5991 46.3997H137.999V92.7995H91.5991V46.3997Z" fill="#FFF2F7" fill-opacity="0.25"/>
<path d="M184.398 46.3997H230.798V92.7995H277.198V139.199H230.798V185.599H184.398V139.199H137.999V92.7995H184.398V46.3997Z" fill="#FFF2F7" fill-opacity="0.25"/>
<path d="M277.201 46.3997H323.601V92.7995H277.201V46.3997Z" fill="#FFF2F7" fill-opacity="0.25"/>
<path d="M91.5991 139.2H137.999V185.599H91.5991V139.2Z" fill="#FFF2F7" fill-opacity="0.25"/>
<path d="M277.201 139.2H323.601V185.599H277.201V139.2Z" fill="#FFF2F7" fill-opacity="0.25"/>
<path d="M137.999 185.599H184.398V231.999H137.999V185.599Z" fill="#FFF2F7" fill-opacity="0.25"/>
<path d="M230.799 185.6H277.199V231.999H230.799V185.6Z" fill="#FFF2F7" fill-opacity="0.25"/>
<path d="M45.2002 232H91.6001V278.4H45.2002V232Z" fill="#FFF2F7" fill-opacity="0.25"/>
<path d="M184.398 232H230.798V324.799H184.398V232Z" fill="#FFF2F7" fill-opacity="0.25"/>
<path d="M-1.20071 278.399H45.1992V324.799H91.599V371.199H45.1992V417.599H-1.20071V371.199H-47.6006V324.799H-1.20071V278.399Z" fill="#FFF2F7" fill-opacity="0.25"/>
<path d="M91.5991 278.399H137.999V324.799H91.5991V278.399Z" fill="#FFF2F7" fill-opacity="0.25"/>
<path d="M323.602 278.399H370.002V324.799H323.602V278.399Z" fill="#FFF2F7" fill-opacity="0.25"/>
<path d="M416.398 278.399H462.798V324.799H416.398V278.399Z" fill="#FFF2F7" fill-opacity="0.25"/>
<path d="M230.799 324.799H323.599V371.199H277.199V417.599H323.599V463.998H369.999V510.398H323.599V603.198H230.799V556.798H277.199V463.998H230.799V324.799Z" fill="#FFF2F7" fill-opacity="0.25"/>
<path d="M370.002 324.799H416.402V371.199H462.802V417.599H416.402V463.998H370.002V417.599H323.602V371.199H370.002V324.799Z" fill="#FFF2F7" fill-opacity="0.25"/>
<path d="M462.798 324.799H509.198V371.199H462.798V324.799Z" fill="#FFF2F7" fill-opacity="0.25"/>
<path d="M91.5991 371.2H137.999V417.6H91.5991V371.2Z" fill="#FFF2F7" fill-opacity="0.25"/>
<path d="M45.2002 417.6H91.6001V463.999H45.2002V417.6Z" fill="#FFF2F7" fill-opacity="0.25"/>
<path d="M137.999 417.6H184.398V510.399H137.999V417.6Z" fill="#FFF2F7" fill-opacity="0.25"/>
<path d="M462.798 417.6H509.198V463.999H462.798V417.6Z" fill="#FFF2F7" fill-opacity="0.25"/>
<path d="M416.398 463.999H462.798V510.399H416.398V463.999Z" fill="#FFF2F7" fill-opacity="0.25"/>
<path d="M184.398 510.399H230.798V556.799H184.398V510.399Z" fill="#FFF2F7" fill-opacity="0.25"/>
<path d="M323.602 603.198H370.002V649.598H323.602V603.198Z" fill="#FFF2F7" fill-opacity="0.25"/>
<path d="M370 649.598H509.199V695.998H370V649.598Z" fill="#FFF2F7" fill-opacity="0.25"/>
</svg>
