<svg width="41" height="72" viewBox="0 0 41 72" fill="none" xmlns="http://www.w3.org/2000/svg">
<path d="M20.3672 61.5986C19.2315 61.5989 18.3088 62.5215 18.3086 63.6572V70.5264H22.4268V63.6572C22.4266 62.5214 21.5031 61.5986 20.3672 61.5986ZM20.3672 56.7881C19.2313 56.7883 18.3086 57.7118 18.3086 58.8477C18.3087 59.9835 19.2314 60.9061 20.3672 60.9062C21.5031 60.9062 22.4267 59.9836 22.4268 58.8477C22.4268 57.7117 21.5032 56.7881 20.3672 56.7881ZM15.9033 44.0713H24.8311V39.9531H15.9033V44.0713ZM14.1787 11.1611C7.05708 11.8568 1.47363 17.876 1.47363 25.1777C1.47378 32.4794 7.0572 38.4976 14.1787 39.1934L15.9736 39.3691L14.873 37.9395C14.3725 37.2892 13.9034 36.4821 13.4824 35.5195C12.2826 32.7771 11.6035 29.1055 11.6035 25.1777C11.6035 21.2499 12.2827 17.5775 13.4824 14.835C13.9035 13.8724 14.3724 13.0653 14.873 12.415L15.9736 10.9854L14.1787 11.1611ZM25.8613 12.415C26.362 13.0654 26.8318 13.8723 27.2529 14.835C28.4528 17.5774 29.1309 21.2498 29.1309 25.1777C29.1308 29.1054 28.4526 32.7771 27.2529 35.5195C26.8318 36.4822 26.362 37.2891 25.8613 37.9395L24.7607 39.3691L26.5566 39.1934C33.6781 38.4977 39.2615 32.4795 39.2617 25.1777C39.2617 17.8758 33.6783 11.8568 26.5566 11.1611L24.7607 10.9854L25.8613 12.415ZM18.2637 11.0938C17.3512 11.0938 16.5286 11.5977 15.8506 12.3135C15.1649 13.0374 14.5482 14.0549 14.0303 15.2822C12.9923 17.742 12.2959 21.1751 12.2959 25.1777C12.2959 29.1802 12.9924 32.6126 14.0303 35.0723C14.5481 36.2995 15.165 37.3171 15.8506 38.041C16.5286 38.7568 17.3512 39.2617 18.2637 39.2617H22.4717C23.3841 39.2617 24.2058 38.7568 24.8838 38.041C25.5695 37.3171 26.1862 36.2996 26.7041 35.0723C27.7421 32.6125 28.4394 29.1803 28.4395 25.1777C28.4395 21.1751 27.7421 17.742 26.7041 15.2822C26.1862 14.055 25.5694 13.0374 24.8838 12.3135C24.2059 11.5979 23.3841 11.0938 22.4717 11.0938H18.2637ZM14.7012 10.4014H26.0342V6.2832H14.7012V10.4014ZM15.2109 39.9668L14.4863 39.9141C6.83767 39.3637 0.781397 32.9639 0.78125 25.1777C0.78125 17.784 6.2427 11.6385 13.3438 10.5674L14.0088 10.4668V5.9375C14.0088 5.74651 14.1636 5.59206 14.3545 5.5918H20.0215V1.12695C20.0217 0.936114 20.1764 0.78143 20.3672 0.78125C20.5583 0.78125 20.7138 0.936093 20.7139 1.12695V5.59082H26.3799C26.571 5.59082 26.7256 5.74636 26.7256 5.9375V10.4668L27.3906 10.5674C34.4919 11.6384 39.9538 17.7838 39.9541 25.1777C39.954 32.9639 33.8975 39.3637 26.249 39.9141L25.5234 39.9668V51.6328C25.5233 51.8239 25.3689 51.9785 25.1777 51.9785C24.9867 51.9785 24.8321 51.8239 24.832 51.6328V44.7637H20.7139V56.0615L21.2451 56.2412C22.3347 56.6093 23.1191 57.6405 23.1191 58.8477C23.1191 59.5695 22.839 60.2266 22.3799 60.7197L21.8838 61.2529L22.3799 61.7852C22.8391 62.2781 23.119 62.9352 23.1191 63.6572V70.873C23.1189 71.064 22.9635 71.2188 22.7725 71.2188H17.9629C17.7719 71.2188 17.6164 71.064 17.6162 70.873V63.6572C17.6163 62.9354 17.8963 62.2782 18.3555 61.7852L18.8516 61.2529L18.3555 60.7197C17.8962 60.2267 17.6162 59.5698 17.6162 58.8477C17.6162 57.6404 18.4006 56.6093 19.4902 56.2412L20.0215 56.0615V44.7637H15.9033V51.6328C15.9032 51.8239 15.7487 51.9784 15.5576 51.9785C15.3665 51.9785 15.211 51.8239 15.2109 51.6328V39.9668Z" fill="#737B5F" stroke="#737B5F" stroke-width="1.5625"/>
</svg>
