<svg width="102" height="102" viewBox="0 0 102 102" fill="none" xmlns="http://www.w3.org/2000/svg">
<path d="M100.978 31.8541L91.5921 31.5354L96.5663 23.5797C90.2817 17.2325 78.8813 15.8553 68.1092 20.3832C65.0391 9.12906 56.9226 1.02264 48.0396 -7.41263e-06L44.8304 8.81336L38.7915 1.63681C30.7989 5.64604 25.9576 16.0455 26.936 27.6697C15.2643 27.1135 5.02873 32.3195 1.3043 40.438L8.70659 46.2033L1.5201e-05 49.7236C1.34492 58.5488 9.75306 66.353 21.13 69.0093C16.9867 79.9196 18.777 91.2435 25.3582 97.2839L33.1423 92.0339L33.8004 101.386C42.6241 102.831 52.6621 97.2551 58.7149 87.2725C67.826 94.5716 79.1681 96.3642 86.96 91.9789L84.3685 82.9686L93.4819 85.2285C97.5902 77.2965 95.3858 66.0459 87.7499 57.2199C97.5241 50.8208 102.743 40.6048 100.978 31.8541ZM65.1037 55.1215C65.717 54.5341 66.4916 54.1388 67.3437 53.988C68.0857 53.8567 68.8536 53.9234 69.5651 54.1815C70.6487 54.5737 71.5141 55.3646 72.0019 56.4072C72.4895 57.4499 72.541 58.6203 72.1464 59.7022C71.6211 61.1455 70.3532 62.2087 68.8376 62.4769C68.095 62.6083 67.3266 62.5412 66.615 62.2834C65.066 61.7217 63.9814 60.3077 63.8004 58.7057L55.0366 55.5299L56.6586 64.6955C58.208 65.1496 59.4162 66.4606 59.703 68.0812C60.1171 70.421 58.5468 72.6618 56.2028 73.0766C53.8587 73.4914 51.6148 71.9256 51.2007 69.5858C50.9139 67.9652 51.5989 66.3192 52.8984 65.3609L51.2764 56.1954L44.1349 62.1859C44.5147 63.7526 43.9812 65.453 42.719 66.5121C42.1389 66.9984 41.4402 67.3253 40.6978 67.4566C39.1822 67.7248 37.6264 67.1611 36.6373 65.9861C35.896 65.1052 35.5426 63.9884 35.6427 62.8415C35.7429 61.6948 36.2844 60.655 37.1676 59.9143C37.7471 59.4282 38.4455 59.1019 39.1877 58.9706C40.04 58.8198 40.9033 58.9253 41.6803 59.2666L48.8206 53.2771L40.0585 50.1022C39.4458 50.6896 38.6712 51.0848 37.8189 51.2356C37.0769 51.3669 36.309 51.3002 35.5975 51.0419C34.5138 50.6497 33.6485 49.8588 33.1607 48.8162C32.6731 47.7735 32.6218 46.603 33.0162 45.5212C33.5415 44.0779 34.8092 43.0148 36.325 42.7465C37.0674 42.6151 37.836 42.6822 38.5476 42.94C40.0965 43.5017 41.1812 44.9157 41.3622 46.5177L50.1258 49.6935L48.5038 40.5279C46.9543 40.0738 45.7461 38.7629 45.4594 37.1423C45.0453 34.8024 46.6156 32.5616 48.9596 32.1468C51.3036 31.732 53.5476 33.2978 53.9616 35.6377C54.2484 37.2583 53.5635 38.9042 52.264 39.8625L53.886 49.0281L61.0277 43.0375C60.6479 41.4708 61.1814 39.7704 62.4435 38.7113C63.0237 38.225 63.7223 37.8981 64.4647 37.7668C65.9803 37.4986 67.5362 38.0622 68.5252 39.2373C69.2665 40.1182 69.62 41.235 69.5199 42.3819C69.4197 43.5286 68.8781 44.5684 67.995 45.3093C67.4154 45.7954 66.7171 46.1216 65.9748 46.253C65.1228 46.4038 64.2595 46.2983 63.4819 45.9571L56.342 51.9461L65.1037 55.1215Z" fill="#FFF2F7"/>
</svg>
